<?xml version="1.0" standalone="no"?>
<!DOCTYPE svg PUBLIC "-//W3C//DTD SVG 1.1//EN" "http://www.w3.org/Graphics/SVG/1.1/DTD/svg11.dtd" >
<svg xmlns="http://www.w3.org/2000/svg">
    <defs>
        <font id="TruenoRg">
            <font-face font-family="TruenoRg"
                       units-per-em="1000"
                       ascent="1006"
                       descent="-194"
                       bbox="-277 -251 1381 969"
                    />
            <missing-glyph horiz-adv-x="0" />
            
            <glyph glyph-name="!" unicode="&#x21;" horiz-adv-x="183" d=" M174,519 L156,223 L83,223 L65,519 L65,691 L174,691 M93,123 Q147,123 165,104.5 Q183,86 183,58 Q183,29 165,10 Q147,-9 120,-9 Q93,-9 75,10 Q57,29 57,58 Q57,86 93,123"/> 
            <glyph glyph-name="&quot;" unicode="&#x22;" horiz-adv-x="302" d=" M148,454 L60,454 L60,700 L148,700 M302,454 L214,454 L214,700 L302,700"/> 
            <glyph glyph-name="#" unicode="&#x23;" horiz-adv-x="696" d=" M546,435 L524,259 L664,259 L656,173 L514,173 L492,0 L408,0 L429,173 L252,173 L230,0 L146,0 L167,173 L27,173 L35,259 L178,259 L199,435 L60,435 L68,521 L210,521 L232,700 L317,700 L295,521 L472,521 L494,700 L579,700 L557,521 L696,521 L689,435 M461,435 L284,435 L262,259 L440,259"/> 
            <glyph glyph-name="$" unicode="&#x24;" horiz-adv-x="576" d=" M363,589 L363,404 Q412,389 441,377 Q470,365 506,341.5 Q542,318 559,282.5 Q576,247 576,198 Q576,116 518,63 Q460,10 363,-1 L363,-142 L275,-142 L275,-2 Q131,10 26,107 L77,209 Q167,126 275,110 L275,310 Q237,321 214,329.5 Q191,338 159.5,355 Q128,372 110.5,391 Q93,410 80,441 Q67,472 67,510 Q67,589 123,640 Q179,691 275,702 L275,834 L363,834 L363,703 Q479,692 567,633 L518,529 Q442,575 363,589 M199,578 Q199,464 275,434 L275,591 M363,283 L363,111 Q445,128 445,192 Q445,251 363,283"/> 
            <glyph glyph-name="%" unicode="&#x25;" horiz-adv-x="935" d=" M137,702 Q309,702 358.5,646.5 Q408,591 408,494 Q408,396 358.5,340 Q309,284 223,284 Q137,284 87.5,340 Q38,396 38,494 Q38,591 137,702 M170,0 L685,700 L795,700 L281,0 M275,634 Q171,634 143,597.5 Q115,561 115,494 Q115,426 143,389 Q171,352 223,352 Q275,352 303.5,389.5 Q332,427 332,494 Q332,561 275,634 M664,415 Q836,415 885.5,359.5 Q935,304 935,207 Q935,109 885.5,53.5 Q836,-2 750,-2 Q664,-2 614.5,53.5 Q565,109 565,207 Q565,304 664,415 M802,348 Q698,348 670,311 Q642,274 642,207 Q642,139 670,102.5 Q698,66 750,66 Q802,66 830.5,103 Q859,140 859,207 Q859,274 802,348"/> 
            <glyph glyph-name="&amp;" unicode="&#x26;" horiz-adv-x="656" d=" M597,-19 L488,88 Q390,-5 277,-5 Q183,-5 120,51 Q57,107 57,191 Q57,259 97,303 Q137,347 208,385 Q141,475 141,547 Q141,617 191.5,661 Q242,705 323,705 Q401,705 450.5,664 Q500,623 500,558 Q500,524 486.5,495 Q473,466 446,442.5 Q419,419 394,403.5 Q369,388 330,367 Q380,310 477,215 Q513,269 540,341 L615,285 Q582,206 542,152 L656,41 M232,548 Q232,495 284,424 Q345,456 377,485.5 Q409,515 409,557 Q409,592 386,612.5 Q363,633 324,633 Q283,633 257.5,609 Q232,585 232,548 M281,82 Q355,82 425,150 Q306,269 255,327 Q206,299 179,269.5 Q152,240 152,200 Q152,148 189,115 Q226,82 281,82"/> 
            <glyph glyph-name="'" unicode="&#x27;" horiz-adv-x="148" d=" M148,454 L60,454 L60,700 L148,700"/> 
            <glyph glyph-name="(" unicode="&#x28;" horiz-adv-x="303" d=" M199,742 L303,742 Q185,558 185,309 Q185,60 303,-124 L199,-124 Q77,52 77,309 Q77,566 199,742"/> 
            <glyph glyph-name=")" unicode="&#x29;" horiz-adv-x="345" d=" M119,742 L223,742 Q345,566 345,309 Q345,52 223,-124 L119,-124 Q237,60 237,309 Q237,558 119,742"/> 
            <glyph glyph-name="*" unicode="&#x2A;" horiz-adv-x="322" d=" M203,511 L204,408 L144,408 L145,511 L56,459 L25,514 L115,565 L25,614 L56,671 L145,618 L144,721 L204,721 L203,618 L292,670 L322,614 L232,565 L322,514 L292,458"/> 
            <glyph glyph-name="+" unicode="&#x2B;" horiz-adv-x="463" d=" M463,285 L287,285 L287,110 L212,110 L212,285 L35,285 L35,364 L212,364 L212,539 L287,539 L287,364 L463,364"/> 
            <glyph glyph-name="," unicode="&#x2C;" horiz-adv-x="170" d=" M109,121 Q134,121 152,103.5 Q170,86 170,57 Q170,30 152,4 L95,-82 L36,-82 L74,5 Q47,23 47,57 Q47,85 64.5,103 Q82,121 109,121"/> 
            <glyph glyph-name="-" unicode="&#x2D;" horiz-adv-x="307" d=" M307,265 L61,265 L61,344 L307,344"/> 
            <glyph glyph-name="." unicode="&#x2E;" horiz-adv-x="172" d=" M82,123 Q136,123 154,104.5 Q172,86 172,58 Q172,29 154,10 Q136,-9 109,-9 Q82,-9 64,10 Q46,29 46,58 Q46,86 82,123"/> 
            <glyph glyph-name="/" unicode="&#x2F;" horiz-adv-x="394" d=" M77,-117 L-21,-117 L296,816 L394,816"/> 
            <glyph glyph-name="0" unicode="&#x30;" horiz-adv-x="643" d=" M346,703 Q489,703 566,611.5 Q643,520 643,350 Q643,180 566,88.5 Q489,-3 346,-3 Q202,-3 125,88.5 Q48,180 48,350 Q48,520 125,611.5 Q202,703 346,703 M346,610 Q169,610 169,350 Q169,90 346,90 Q522,90 522,350 Q522,610 346,610"/> 
            <glyph glyph-name="1" unicode="&#x31;" horiz-adv-x="268" d=" M268,0 L150,0 L150,595 L13,595 L13,700 L268,700"/> 
            <glyph glyph-name="2" unicode="&#x32;" horiz-adv-x="543" d=" M288,705 Q388,705 449.5,657 Q511,609 511,529 Q511,437 383,299 L201,106 L543,106 L543,0 L45,0 L45,86 L303,363 Q388,450 388,512 Q388,554 357,578 Q326,602 271,602 Q176,602 80,514 L33,605 Q156,705 288,705"/> 
            <glyph glyph-name="3" unicode="&#x33;" horiz-adv-x="495" d=" M262,409 L298,405 Q388,397 441.5,347.5 Q495,298 495,217 Q495,118 425.5,56.5 Q356,-5 240,-5 Q176,-5 112.5,15.5 Q49,36 4,71 L53,167 Q131,94 232,94 Q301,94 340,126.5 Q379,159 379,214 Q379,270 340.5,299.5 Q302,329 231,329 L134,329 L134,398 L316,594 L36,594 L36,699 L462,699 L462,625"/> 
            <glyph glyph-name="4" unicode="&#x34;" horiz-adv-x="576" d=" M156,277 L364,277 L364,443 L474,443 L474,277 L576,277 L576,172 L474,172 L474,0 L364,0 L364,172 L30,172 L30,260 L269,700 L383,700"/> 
            <glyph glyph-name="5" unicode="&#x35;" horiz-adv-x="534" d=" M506,594 L188,594 L188,443 L284,444 Q397,444 465.5,384 Q534,324 534,231 Q534,124 463.5,60 Q393,-4 275,-4 Q213,-4 145.5,18 Q78,40 26,76 L73,172 Q161,98 262,98 Q330,98 369,131.5 Q408,165 408,224 Q408,277 369,308 Q330,339 263,339 Q164,339 79,330 L79,700 L505,700"/> 
            <glyph glyph-name="6" unicode="&#x36;" horiz-adv-x="579" d=" M350,705 Q465,705 559,652 L513,563 Q445,607 358,607 Q259,607 209.5,539 Q160,471 163,354 Q219,453 354,453 Q458,453 518.5,392.5 Q579,332 579,230 Q579,122 512,58.5 Q445,-5 333,-5 Q200,-5 124,85 Q48,175 48,336 Q48,504 130,604.5 Q212,705 350,705 M332,360 Q263,360 222,321.5 Q181,283 182,227 Q181,176 218.5,136.5 Q256,97 327,97 Q392,97 430.5,132.5 Q469,168 469,231 Q469,291 432.5,325.5 Q396,360 332,360"/> 
            <glyph glyph-name="7" unicode="&#x37;" horiz-adv-x="546" d=" M546,610 L267,0 L142,0 L414,594 L142,594 L141,496 L37,594 L37,700 L546,700"/> 
            <glyph glyph-name="8" unicode="&#x38;" horiz-adv-x="583" d=" M205,705 Q421,705 484.5,656.5 Q548,608 548,524 Q548,474 520.5,435 Q493,396 444,374 Q509,353 546,306 Q583,259 583,196 Q583,103 510.5,49 Q438,-5 313,-5 Q189,-5 116.5,48.5 Q44,102 44,194 Q44,258 82.5,305.5 Q121,353 188,374 Q79,424 79,528 Q79,610 205,705 M313,620 Q250,620 214.5,593 Q179,566 179,517 Q179,468 214.5,441.5 Q250,415 313,415 Q377,415 412,441.5 Q447,468 447,517 Q447,566 412,593 Q377,620 313,620 M313,323 Q239,323 197.5,292.5 Q156,262 156,207 Q156,150 197,119 Q238,88 313,88 Q388,88 429.5,119 Q471,150 471,207 Q471,262 429.5,292.5 Q388,323 313,323"/> 
            <glyph glyph-name="9" unicode="&#x39;" horiz-adv-x="573" d=" M271,-5 Q156,-5 62,48 L108,137 Q176,93 263,93 Q362,93 411.5,161 Q461,229 458,346 Q402,247 267,247 Q162,247 102,307.5 Q42,368 42,470 Q42,578 109,641.5 Q176,705 288,705 Q421,705 497,615 Q573,525 573,364 Q573,196 491,95.5 Q409,-5 271,-5 M289,340 Q358,340 399,378.5 Q440,417 439,473 Q440,524 402.5,563.5 Q365,603 294,603 Q229,603 190.5,567.5 Q152,532 152,469 Q152,409 188.5,374.5 Q225,340 289,340"/> 
            <glyph glyph-name=":" unicode="&#x3A;" horiz-adv-x="172" d=" M82,420 Q136,420 154,401.5 Q172,383 172,355 Q172,326 154,307 Q136,288 109,288 Q82,288 64,307 Q46,326 46,355 Q46,383 82,420 M82,123 Q136,123 154,104.5 Q172,86 172,58 Q172,29 154,10 Q136,-9 109,-9 Q82,-9 64,10 Q46,29 46,58 Q46,86 82,123"/> 
            <glyph glyph-name=";" unicode="&#x3B;" horiz-adv-x="172" d=" M136,288 Q82,288 64,307 Q46,326 46,355 Q46,383 64,401.5 Q82,420 109,420 Q136,420 154,401.5 Q172,383 172,355 Q172,326 136,288 M109,121 Q134,121 152,103.5 Q170,86 170,57 Q170,30 152,4 L95,-82 L36,-82 L74,5 Q47,23 47,57 Q47,85 64.5,103 Q82,121 109,121"/> 
            <glyph glyph-name="&lt;" unicode="&#x3C;" horiz-adv-x="463" d=" M463,473 L112,326 L463,178 L463,89 L35,275 L35,376 L463,562"/> 
            <glyph glyph-name="=" unicode="&#x3D;" horiz-adv-x="463" d=" M463,390 L35,390 L35,469 L463,469 M463,180 L35,180 L35,259 L463,259"/> 
            <glyph glyph-name="&gt;" unicode="&#x3E;" horiz-adv-x="463" d=" M35,183 L386,330 L35,478 L35,567 L463,381 L463,280 L35,94"/> 
            <glyph glyph-name="?" unicode="&#x3F;" horiz-adv-x="412" d=" M95,495 L5,496 Q8,591 63,643 Q118,695 212,695 Q304,695 358,651.5 Q412,608 412,528 Q412,484 395.5,449.5 Q379,415 356,392 Q333,369 310,347 Q287,325 270.5,295 Q254,265 254,228 L166,228 Q166,272 180.5,306.5 Q195,341 215.5,363 Q236,385 256,405 Q276,425 290.5,451.5 Q305,478 305,511 Q305,553 277.5,575 Q250,597 202,597 Q100,597 95,495 M182,123 Q236,123 254,104.5 Q272,86 272,58 Q272,29 254,10 Q236,-9 209,-9 Q182,-9 164,10 Q146,29 146,58 Q146,86 182,123"/> 
            <glyph glyph-name="@" unicode="&#x40;" horiz-adv-x="940" d=" M493,702 Q686,702 813,580 Q940,458 940,272 Q940,160 887,91.5 Q834,23 749,23 Q649,23 633,104 L631,124 Q570,35 459,35 Q365,35 296.5,101 Q228,167 228,269 Q228,370 289,439 Q350,508 448,508 Q506,508 550.5,481.5 Q595,455 606,433 L606,498 L714,498 L714,149 Q714,95 760,95 Q798,95 826,144.5 Q854,194 854,269 Q854,421 755,521 Q656,621 493,621 Q337,621 228.5,518 Q120,415 120,267 Q120,121 223,25.5 Q326,-70 480,-70 Q590,-70 673,-11 L714,-84 Q671,-115 604.5,-134 Q538,-153 480,-153 Q289,-153 161.5,-33 Q34,87 34,267 Q34,451 166.5,576.5 Q299,702 493,702 M469,408 Q414,408 379.5,369.5 Q345,331 345,274 Q345,215 380,174 Q415,133 471,133 Q529,133 564,173 Q599,213 599,273 Q599,331 563,369.5 Q527,408 469,408"/> 
            <glyph glyph-name="A" unicode="&#x41;" horiz-adv-x="737" d=" M544,158 L191,158 L124,0 L1,0 L310,700 L431,700 L737,0 L611,0 M499,263 L367,574 L235,263"/> 
            <glyph glyph-name="B" unicode="&#x42;" horiz-adv-x="658" d=" M92,700 L396,700 Q505,700 568,653.5 Q631,607 631,525 Q631,466 598,424.5 Q565,383 508,369 Q578,357 618,310 Q658,263 658,192 Q658,102 590,51 Q522,0 403,0 L92,0 M210,595 L210,410 L390,410 Q446,410 478,435 Q510,460 510,504 Q510,548 478.5,571.5 Q447,595 390,595 M210,306 L210,105 L390,105 Q460,105 498.5,131.5 Q537,158 537,207 Q537,253 498,279.5 Q459,306 390,306"/> 
            <glyph glyph-name="C" unicode="&#x43;" horiz-adv-x="669" d=" M402,703 Q476,703 546.5,674.5 Q617,646 668,595 L599,509 Q561,550 509,574 Q457,598 404,598 Q299,598 226.5,526.5 Q154,455 154,352 Q154,248 226.5,176.5 Q299,105 404,105 Q513,105 599,188 L669,110 Q615,57 543,26 Q471,-5 398,-5 Q244,-5 139,97.5 Q34,200 34,351 Q34,500 140.5,601.5 Q247,703 402,703"/> 
            <glyph glyph-name="D" unicode="&#x44;" horiz-adv-x="741" d=" M92,700 L379,700 Q536,700 638.5,601 Q741,502 741,350 Q741,198 638,99 Q535,0 376,0 L92,0 M210,594 L210,106 L382,106 Q485,106 553.5,174.5 Q622,243 622,349 Q622,455 551.5,524.5 Q481,594 377,594"/> 
            <glyph glyph-name="E" unicode="&#x45;" horiz-adv-x="604" d=" M592,594 L210,594 L210,405 L552,405 L552,299 L210,299 L210,106 L604,106 L604,0 L92,0 L92,700 L592,700"/> 
            <glyph glyph-name="F" unicode="&#x46;" horiz-adv-x="562" d=" M561,594 L210,594 L210,392 L528,392 L528,287 L210,287 L210,0 L92,0 L92,700 L562,700"/> 
            <glyph glyph-name="G" unicode="&#x47;" horiz-adv-x="678" d=" M571,344 L674,344 L674,86 Q620,45 546.5,20 Q473,-5 402,-5 Q247,-5 140.5,97.5 Q34,200 34,350 Q34,500 142,601.5 Q250,703 409,703 Q483,703 554.5,676.5 Q626,650 678,605 L611,518 Q525,598 409,598 Q302,598 228,526 Q154,454 154,350 Q154,245 228.5,173 Q303,101 410,101 Q491,101 571,149"/> 
            <glyph glyph-name="H" unicode="&#x48;" horiz-adv-x="699" d=" M699,0 L581,0 L581,290 L210,290 L210,0 L92,0 L92,700 L210,700 L210,396 L581,396 L581,700 L699,700"/> 
            <glyph glyph-name="I" unicode="&#x49;" horiz-adv-x="210" d=" M210,0 L92,0 L92,700 L210,700"/> 
            <glyph glyph-name="J" unicode="&#x4A;" horiz-adv-x="422" d=" M303,700 L422,700 L422,216 Q422,111 364,53 Q306,-5 204,-5 Q80,-5 -2,96 L54,186 Q125,109 203,109 Q251,109 277,137.5 Q303,166 303,220"/> 
            <glyph glyph-name="K" unicode="&#x4B;" horiz-adv-x="701" d=" M559,0 L329,309 L210,178 L210,0 L92,0 L92,700 L210,700 L210,338 L544,700 L683,700 L412,401 L701,0"/> 
            <glyph glyph-name="L" unicode="&#x4C;" horiz-adv-x="513" d=" M210,107 L513,107 L513,0 L92,0 L92,700 L210,700"/> 
            <glyph glyph-name="M" unicode="&#x4D;" horiz-adv-x="832" d=" M832,0 L723,0 L722,523 L501,73 L424,73 L203,523 L203,0 L92,0 L92,700 L232,700 L463,235 L693,700 L832,700"/> 
            <glyph glyph-name="N" unicode="&#x4E;" horiz-adv-x="699" d=" M699,0 L583,0 L210,502 L210,0 L92,0 L92,700 L208,700 L583,197 L583,700 L699,700"/> 
            <glyph glyph-name="O" unicode="&#x4F;" horiz-adv-x="776" d=" M248,703 Q562,703 669,601.5 Q776,500 776,350 Q776,200 669,97.5 Q562,-5 405,-5 Q248,-5 141,97.5 Q34,200 34,350 Q34,500 248,703 M406,597 Q302,597 228,525.5 Q154,454 154,350 Q154,246 228.5,173.5 Q303,101 406,101 Q509,101 582,173.5 Q655,246 655,350 Q655,454 582,525.5 Q509,597 406,597"/> 
            <glyph glyph-name="P" unicode="&#x50;" horiz-adv-x="648" d=" M92,700 L371,700 Q503,700 575.5,637.5 Q648,575 648,461 Q648,342 575.5,276.5 Q503,211 371,211 L210,211 L210,0 L92,0 M210,594 L210,317 L366,317 Q535,317 535,458 Q535,594 366,594"/> 
            <glyph glyph-name="Q" unicode="&#x51;" horiz-adv-x="817" d=" M770,6 L817,-77 Q730,-154 627,-154 Q562,-154 504,-115 Q446,-76 404,-5 Q247,-4 140.5,98 Q34,200 34,350 Q34,500 141,601.5 Q248,703 405,703 Q562,703 669,601.5 Q776,500 776,350 Q776,231 706.5,139.5 Q637,48 524,13 Q584,-52 641,-52 Q696,-52 770,6 M154,454 Q154,246 228.5,173.5 Q303,101 406,101 Q509,101 582,173.5 Q655,246 655,350 Q655,454 582,525.5 Q509,597 406,597 Q302,597 154,454"/> 
            <glyph glyph-name="R" unicode="&#x52;" horiz-adv-x="670" d=" M536,0 L408,212 Q398,211 376,211 L210,211 L210,0 L92,0 L92,700 L376,700 Q510,700 584,637.5 Q658,575 658,461 Q658,377 620.5,319 Q583,261 513,234 L670,0 M210,317 L376,317 Q546,317 546,458 Q546,594 376,594 L210,594"/> 
            <glyph glyph-name="S" unicode="&#x53;" horiz-adv-x="576" d=" M322,705 Q458,705 567,633 L518,529 Q411,594 313,594 Q260,594 229.5,575 Q199,556 199,521 Q199,486 227,461.5 Q255,437 297,425.5 Q339,414 388,396.5 Q437,379 479,359.5 Q521,340 548.5,298.5 Q576,257 576,198 Q576,106 502.5,51 Q429,-4 312,-4 Q232,-4 157,26 Q82,56 26,107 L77,209 Q130,160 193.5,133.5 Q257,107 314,107 Q376,107 410.5,129.5 Q445,152 445,192 Q445,228 417,252.5 Q389,277 347,288.5 Q305,300 256,316.5 Q207,333 165,351.5 Q123,370 95,411 Q67,452 67,510 Q67,599 137,652 Q207,705 322,705"/> 
            <glyph glyph-name="T" unicode="&#x54;" horiz-adv-x="570" d=" M570,594 L348,594 L348,0 L230,0 L230,594 L9,594 L9,700 L570,700"/> 
            <glyph glyph-name="U" unicode="&#x55;" horiz-adv-x="687" d=" M687,700 L687,290 Q687,153 606,74 Q525,-5 383,-5 Q241,-5 159.5,74 Q78,153 78,290 L78,700 L196,700 L196,290 Q196,202 246.5,151.5 Q297,101 384,101 Q470,101 519.5,151 Q569,201 569,290 L569,700"/> 
            <glyph glyph-name="V" unicode="&#x56;" horiz-adv-x="687" d=" M404,0 L282,0 L3,700 L130,700 L346,131 L564,700 L687,700"/> 
            <glyph glyph-name="W" unicode="&#x57;" horiz-adv-x="1046" d=" M812,0 L691,0 L525,546 L357,0 L235,0 L3,700 L130,700 L300,131 L469,699 L585,700 L755,131 L924,700 L1046,700"/> 
            <glyph glyph-name="X" unicode="&#x58;" horiz-adv-x="671" d=" M416,364 L671,0 L530,0 L341,264 L153,0 L15,0 L270,359 L33,700 L170,700 L341,457 L513,700 L651,700"/> 
            <glyph glyph-name="Y" unicode="&#x59;" horiz-adv-x="636" d=" M379,233 L379,0 L262,0 L262,229 L1,700 L120,700 L320,359 L516,700 L636,700"/> 
            <glyph glyph-name="Z" unicode="&#x5A;" horiz-adv-x="628" d=" M623,615 L197,106 L628,106 L628,0 L37,0 L37,85 L464,594 L50,594 L50,700 L623,700"/> 
            <glyph glyph-name="[" unicode="&#x5B;" horiz-adv-x="319" d=" M319,650 L195,650 L195,-32 L319,-32 L319,-124 L92,-124 L92,742 L319,742"/> 
            <glyph glyph-name="\" unicode="&#x5C;" horiz-adv-x="545" d=" M228,816 L545,-117 L447,-117 L130,816"/> 
            <glyph glyph-name="]" unicode="&#x5D;" horiz-adv-x="381" d=" M381,742 L381,-124 L154,-124 L154,-32 L278,-32 L278,650 L154,650 L154,742"/> 
            <glyph glyph-name="^" unicode="&#x5E;" horiz-adv-x="505" d=" M416,132 L269,455 L121,132 L32,132 L218,526 L319,526 L505,132"/> 
            <glyph glyph-name="_" unicode="&#x5F;" horiz-adv-x="566" d=" M566,-204 L0,-204 L0,-134 L566,-134"/> 
            <glyph glyph-name="`" unicode="&#x60;" horiz-adv-x="280" d=" M280,609 L178,609 L56,707 L174,757"/> 
            <glyph glyph-name="a" unicode="&#x61;" horiz-adv-x="517" d=" M404,0 L404,65 Q347,-5 228,-5 Q143,-5 92,41.5 Q41,88 41,160 Q41,233 94,276 Q147,319 242,320 L403,320 L403,336 Q403,387 370.5,415 Q338,443 276,443 Q198,443 119,389 L72,469 Q133,505 181.5,520.5 Q230,536 301,536 Q403,536 459,486.5 Q515,437 516,349 L517,0 M252,86 Q313,86 355.5,114.5 Q398,143 403,187 L403,236 L259,236 Q202,236 175.5,219.5 Q149,203 149,165 Q149,129 176.5,107.5 Q204,86 252,86"/> 
            <glyph glyph-name="b" unicode="&#x62;" horiz-adv-x="645" d=" M391,536 Q504,536 574.5,460.5 Q645,385 645,264 Q645,144 576,70 Q507,-4 393,-4 Q265,-4 205,92 L205,0 L90,0 L90,742 L205,742 L205,440 Q265,536 391,536 M296,94 Q438,94 483.5,142.5 Q529,191 529,268 Q529,343 483.5,391.5 Q438,440 367,440 Q296,440 250.5,391.5 Q205,343 205,268 Q205,191 296,94"/> 
            <glyph glyph-name="c" unicode="&#x63;" horiz-adv-x="529" d=" M303,536 Q447,536 523,449 L460,375 Q400,436 308,435 Q239,435 194.5,387.5 Q150,340 150,265 Q150,190 194.5,142.5 Q239,95 308,95 Q410,95 465,159 L529,95 Q454,-4 303,-4 Q184,-4 109.5,70.5 Q35,145 35,265 Q35,386 109.5,461 Q184,536 303,536"/> 
            <glyph glyph-name="d" unicode="&#x64;" horiz-adv-x="592" d=" M592,742 L592,0 L477,0 L477,91 Q418,-5 290,-5 Q176,-5 105.5,70.5 Q35,146 35,268 Q35,388 105,462.5 Q175,537 288,537 Q416,537 477,440 L477,742 M242,91 Q386,91 431.5,139.5 Q477,188 477,264 Q477,341 431.5,390 Q386,439 314,439 Q242,439 196.5,390 Q151,341 150,264 Q151,188 242,91"/> 
            <glyph glyph-name="e" unicode="&#x65;" horiz-adv-x="564" d=" M304,536 Q441,536 502.5,453.5 Q564,371 553,222 L151,222 Q165,160 209,124.5 Q253,89 316,89 Q406,89 466,151 L527,86 Q445,-4 307,-4 Q184,-4 109.5,70.5 Q35,145 35,265 Q35,385 110,460 Q185,535 304,536 M149,306 L453,306 Q450,370 410,407 Q370,444 305,444 Q242,444 200.5,407 Q159,370 149,306"/> 
            <glyph glyph-name="f" unicode="&#x66;" horiz-adv-x="410" d=" M293,647 Q262,647 241.5,629 Q221,611 221,575 L221,512 L360,512 L360,426 L221,426 L221,0 L107,0 L107,426 L37,426 L37,512 L107,512 L107,564 Q107,652 161,699.5 Q215,747 290,747 Q360,747 410,710 L366,622 Q332,647 293,647"/> 
            <glyph glyph-name="g" unicode="&#x67;" horiz-adv-x="565" d=" M565,532 L565,52 Q565,-62 490,-129.5 Q415,-197 289,-197 Q171,-197 68,-127 L117,-44 Q195,-102 284,-102 Q360,-102 405.5,-61 Q451,-20 451,49 L451,116 Q395,26 275,26 Q167,26 101,97 Q35,168 35,283 Q35,396 100,465.5 Q165,535 271,536 Q393,537 451,446 L451,532 M298,116 Q365,116 408,162 Q451,208 451,280 Q451,352 408.5,397.5 Q366,443 298,443 Q230,443 187,397.5 Q144,352 143,280 Q144,208 186.5,162 Q229,116 298,116"/> 
            <glyph glyph-name="h" unicode="&#x68;" horiz-adv-x="600" d=" M402,536 Q495,536 547.5,481.5 Q600,427 600,331 L600,0 L485,0 L485,299 Q485,359 451,393.5 Q417,428 357,428 Q287,427 246,380.5 Q205,334 205,262 L205,0 L90,0 L90,742 L205,742 L205,428 Q260,536 402,536"/> 
            <glyph glyph-name="i" unicode="&#x69;" horiz-adv-x="209" d=" M113,754 Q171,754 190,734.5 Q209,715 209,684 Q209,654 190,634.5 Q171,615 142,615 Q113,615 94,634.5 Q75,654 75,684 Q75,715 113,754 M199,0 L85,0 L85,532 L199,532"/> 
            <glyph glyph-name="j" unicode="&#x6A;" horiz-adv-x="212" d=" M141,754 Q172,754 192,734.5 Q212,715 212,684 Q212,654 192,634 Q172,614 141,614 Q111,614 91,634 Q71,654 71,684 Q71,715 91,734.5 Q111,754 141,754 M198,532 L198,-15 Q198,-104 147,-151.5 Q96,-199 26,-199 Q-36,-199 -85,-163 L-47,-74 Q-13,-98 21,-98 Q49,-98 66.5,-80 Q84,-62 84,-26 L84,532"/> 
            <glyph glyph-name="k" unicode="&#x6B;" horiz-adv-x="587" d=" M295,244 L205,149 L205,0 L90,0 L90,742 L205,742 L205,294 L440,532 L572,532 L375,326 L587,0 L451,0"/> 
            <glyph glyph-name="l" unicode="&#x6C;" horiz-adv-x="205" d=" M205,0 L90,0 L90,742 L205,742"/> 
            <glyph glyph-name="m" unicode="&#x6D;" horiz-adv-x="974" d=" M779,536 Q870,536 922,481 Q974,426 974,331 L974,0 L859,0 L859,299 Q859,360 825.5,394.5 Q792,429 733,429 Q666,427 626.5,380.5 Q587,334 587,263 L587,0 L472,0 L472,299 Q472,360 438.5,394.5 Q405,429 347,429 Q279,427 239,380.5 Q199,334 199,263 L199,0 L85,0 L85,532 L199,532 L199,429 Q252,536 392,536 Q463,536 510.5,502.5 Q558,469 577,408 Q626,536 779,536"/> 
            <glyph glyph-name="n" unicode="&#x6E;" horiz-adv-x="594" d=" M396,536 Q489,536 541.5,481.5 Q594,427 594,331 L594,0 L479,0 L479,299 Q479,359 445,393.5 Q411,428 351,428 Q287,427 246.5,387 Q206,347 200,283 L200,0 L85,0 L85,532 L200,532 L200,430 Q254,536 396,536"/> 
            <glyph glyph-name="o" unicode="&#x6F;" horiz-adv-x="590" d=" M313,536 Q436,536 513,461.5 Q590,387 590,266 Q590,146 513,71 Q436,-4 313,-4 Q189,-4 112,71 Q35,146 35,266 Q35,387 112,461.5 Q189,536 313,536 M313,437 Q241,437 195.5,389 Q150,341 150,265 Q150,188 195.5,140 Q241,92 313,92 Q385,92 430,140 Q475,188 475,265 Q475,341 429.5,389 Q384,437 313,437"/> 
            <glyph glyph-name="p" unicode="&#x70;" horiz-adv-x="645" d=" M391,536 Q504,536 574.5,460.5 Q645,385 645,264 Q645,144 576,70 Q507,-4 393,-4 Q265,-4 205,92 L205,-194 L90,-194 L90,532 L205,532 L205,440 Q265,536 391,536 M296,94 Q438,94 483.5,142.5 Q529,191 529,268 Q529,343 483.5,391.5 Q438,440 367,440 Q296,440 250.5,391.5 Q205,343 205,268 Q205,191 296,94"/> 
            <glyph glyph-name="q" unicode="&#x71;" horiz-adv-x="592" d=" M592,532 L592,-194 L477,-194 L477,91 Q418,-5 290,-5 Q176,-5 105.5,70.5 Q35,146 35,268 Q35,388 105,462.5 Q175,537 288,537 Q416,537 477,440 L477,532 M242,91 Q386,91 431.5,139.5 Q477,188 477,264 Q477,341 431.5,390 Q386,439 314,439 Q242,439 196.5,390 Q151,341 150,264 Q151,188 242,91"/> 
            <glyph glyph-name="r" unicode="&#x72;" horiz-adv-x="384" d=" M200,532 L200,426 Q255,536 384,536 L384,426 Q305,430 256,389 Q207,348 200,278 L200,0 L85,0 L85,532"/> 
            <glyph glyph-name="s" unicode="&#x73;" horiz-adv-x="439" d=" M244,537 Q354,537 430,483 L388,398 Q312,445 235,445 Q157,445 157,392 Q157,366 186,349 Q215,332 256.5,320.5 Q298,309 339.5,293.5 Q381,278 410,243 Q439,208 439,154 Q439,77 380.5,36.5 Q322,-4 235,-4 Q175,-4 117.5,15.5 Q60,35 21,70 L62,152 Q96,122 145.5,104 Q195,86 240,86 Q279,86 303,100 Q327,114 327,143 Q327,173 298,191 Q269,209 228,220 Q187,231 146,246 Q105,261 76.5,295.5 Q48,330 48,383 Q48,459 104.5,498 Q161,537 244,537"/> 
            <glyph glyph-name="t" unicode="&#x74;" horiz-adv-x="386" d=" M357,122 L386,34 Q320,-5 255,-5 Q190,-5 148,34 Q106,73 106,150 L106,426 L31,426 L31,512 L106,512 L106,658 L220,658 L220,512 L377,512 L377,426 L220,426 L220,171 Q220,131 234,115 Q248,99 277,99 Q309,99 357,122"/> 
            <glyph glyph-name="u" unicode="&#x75;" horiz-adv-x="568" d=" M568,532 L568,0 L453,0 L453,104 Q401,-2 263,-4 Q172,-4 120,51 Q68,106 68,201 L68,532 L183,532 L183,233 Q183,173 216,138.5 Q249,104 307,104 Q374,105 413.5,151.5 Q453,198 453,270 L453,532"/> 
            <glyph glyph-name="v" unicode="&#x76;" horiz-adv-x="530" d=" M326,0 L207,0 L1,532 L121,532 L269,113 L415,532 L530,532"/> 
            <glyph glyph-name="w" unicode="&#x77;" horiz-adv-x="898" d=" M704,0 L585,0 L450,394 L315,0 L197,0 L1,532 L119,532 L257,114 L391,532 L510,532 L645,114 L781,532 L898,532"/> 
            <glyph glyph-name="x" unicode="&#x78;" horiz-adv-x="537" d=" M278,350 L399,532 L525,532 L354,273 L537,0 L405,0 L278,195 L142,0 L14,0 L202,273 L27,532 L159,532"/> 
            <glyph glyph-name="y" unicode="&#x79;" horiz-adv-x="536" d=" M536,532 L294,-73 Q244,-199 121,-199 Q52,-199 -2,-154 L47,-65 Q83,-91 116,-91 Q170,-91 197,-32 L215,8 L-5,532 L114,532 L273,129 L421,532"/> 
            <glyph glyph-name="z" unicode="&#x7A;" horiz-adv-x="500" d=" M491,454 L187,94 L500,93 L500,-1 L45,0 L45,78 L349,438 L54,438 L54,532 L491,531"/> 
            <glyph glyph-name="{" unicode="&#x7B;" horiz-adv-x="309" d=" M214,580 L214,416 Q214,368 198,343 Q182,318 144,308 Q182,299 198,274 Q214,249 214,201 L214,37 Q214,-1 235.5,-17.5 Q257,-34 309,-34 L309,-126 L266,-126 Q182,-126 146,-97 Q110,-68 110,2 L110,208 Q110,236 100,248.5 Q90,261 67,261 L36,261 L36,356 L67,356 Q90,356 100,368.5 Q110,381 110,409 L110,616 Q110,685 146,714 Q182,743 266,743 L309,743 L309,651 Q257,651 235.5,634.5 Q214,618 214,580"/> 
            <glyph glyph-name="|" unicode="&#x7C;" horiz-adv-x="178" d=" M178,-116 L91,-116 L91,810 L178,810"/> 
            <glyph glyph-name="}" unicode="&#x7D;" horiz-adv-x="402" d=" M402,356 L402,261 L371,261 Q348,261 338,248.5 Q328,236 328,208 L328,2 Q328,-68 292,-97 Q256,-126 172,-126 L129,-126 L129,-34 Q181,-34 202.5,-17.5 Q224,-1 224,37 L224,201 Q224,249 240,274 Q256,299 294,309 Q256,318 240,343 Q224,368 224,416 L224,580 Q224,618 202.5,634.5 Q181,651 129,651 L129,743 L172,743 Q256,743 292,714 Q328,685 328,616 L328,409 Q328,381 338,368.5 Q348,356 371,356"/> 
            <glyph glyph-name="~" unicode="&#x7E;" horiz-adv-x="433" d=" M163,395 Q198,395 247.5,366.5 Q297,338 315,338 Q354,338 354,388 L433,388 Q433,248 336,248 Q299,248 250.5,276.5 Q202,305 185,305 Q146,305 146,255 L66,255 Q66,395 163,395"/> 
            <glyph glyph-name="¡" unicode="&#xA1;" horiz-adv-x="180" d=" M144,408 Q90,408 72,426.5 Q54,445 54,473 Q54,502 72,521 Q90,540 117,540 Q144,540 162,521 Q180,502 180,473 Q180,445 144,408 M63,13 L81,308 L154,308 L172,13 L172,-160 L63,-160"/> 
            <glyph glyph-name="¢" unicode="&#xA2;" horiz-adv-x="529" d=" M465,159 L529,95 Q466,11 346,-2 L346,-142 L259,-142 L259,-1 Q158,13 96.5,85 Q35,157 35,265 Q35,374 96.5,446.5 Q158,519 259,533 L259,684 L346,684 L346,534 Q459,522 523,449 L460,375 Q414,423 346,433 L346,98 Q421,107 465,159 M150,326 Q150,204 179.5,160.5 Q209,117 259,102 L259,428 Q209,413 150,326"/> 
            <glyph glyph-name="£" unicode="&#xA3;" horiz-adv-x="531" d=" M238,96 L518,96 L518,0 L37,0 L37,96 L120,96 L120,298 L37,298 L37,382 L120,382 L120,483 Q120,589 175.5,647 Q231,705 333,705 Q452,705 531,615 L484,523 Q420,599 345,599 Q238,599 238,480 L238,382 L414,382 L414,298 L238,298"/> 
            <glyph glyph-name="¤" unicode="&#xA4;" horiz-adv-x="676" d=" M625,402 Q625,236 574,167 L676,65 L611,-4 L505,101 Q437,57 355,57 Q274,57 206,101 L100,-4 L35,65 L137,167 Q87,236 87,319 Q87,401 135,470 L35,570 L100,639 L203,536 Q272,583 355,583 Q438,583 508,537 L611,639 L676,570 L576,470 M355,155 Q429,155 481.5,203 Q534,251 534,319 Q534,388 481.5,437 Q429,486 355,486 Q282,486 230.5,437 Q179,388 179,319 Q179,251 230.5,203 Q282,155 355,155"/> 
            <glyph glyph-name="¥" unicode="&#xA5;" horiz-adv-x="636" d=" M428,322 L575,322 L575,272 L401,272 L380,234 L380,189 L575,189 L575,139 L380,139 L380,0 L262,0 L262,139 L75,139 L75,189 L262,189 L262,229 L238,272 L75,272 L75,322 L211,322 L1,700 L120,700 L320,359 L516,700 L636,700"/> 
            <glyph glyph-name="¦" unicode="&#xA6;" horiz-adv-x="178" d=" M178,464 L91,464 L91,810 L178,810 M178,-116 L91,-116 L91,230 L178,230"/> 
            <glyph glyph-name="§" unicode="&#xA7;" horiz-adv-x="468" d=" M259,694 Q360,694 448,641 L412,567 Q332,613 260,613 Q216,613 189.5,596.5 Q163,580 163,554 Q163,523 194.5,503.5 Q226,484 271,471 Q316,458 360.5,442 Q405,426 436.5,392 Q468,358 468,306 Q468,263 437,227 Q406,191 360,177 Q406,157 426.5,131 Q447,105 447,63 Q447,-2 390.5,-43.5 Q334,-85 242,-85 Q114,-85 21,-9 L56,65 Q142,-3 239,-3 Q285,-3 314.5,15 Q344,33 344,60 Q344,90 313,110.5 Q282,131 237.5,144 Q193,157 148.5,173 Q104,189 73,223 Q42,257 42,307 Q42,354 74.5,387 Q107,420 164,434 Q108,457 85.5,483.5 Q63,510 63,550 Q63,614 117,654 Q171,694 259,694 M242,376 Q195,376 168.5,359.5 Q142,343 142,315 Q142,280 178.5,257.5 Q215,235 269,235 Q316,235 341,252.5 Q366,270 366,299 Q366,333 331,354.5 Q296,376 242,376"/> 
            <glyph glyph-name="¨" unicode="&#xA8;" horiz-adv-x="324" d=" M61,753 Q113,753 130,735 Q147,717 147,689 Q147,662 130,644 Q113,626 87,626 Q61,626 43.5,644 Q26,662 26,689 Q26,717 61,753 M238,753 Q290,753 307,735 Q324,717 324,689 Q324,662 307,644 Q290,626 264,626 Q238,626 220.5,644 Q203,662 203,689 Q203,717 238,753"/> 
            <glyph glyph-name="©" unicode="&#xA9;" horiz-adv-x="711" d=" M231,689 Q515,689 613,589.5 Q711,490 711,350 Q711,210 612,109.5 Q513,9 371,9 Q230,9 132,108.5 Q34,208 34,348 Q34,488 231,689 M373,629 Q254,629 172.5,546.5 Q91,464 91,348 Q91,232 172,150.5 Q253,69 371,69 Q490,69 572,151.5 Q654,234 654,350 Q654,466 572.5,547.5 Q491,629 373,629 M302,520 Q454,520 509,467 L474,425 Q432,467 379,467 Q328,467 293,433 Q258,399 258,350 Q258,300 293,265.5 Q328,231 379,231 Q432,231 474,271 L509,232 Q451,176 376,176 Q301,176 249.5,226 Q198,276 198,349 Q198,422 302,520"/> 
            <glyph glyph-name="ª" unicode="&#xAA;" horiz-adv-x="335" d=" M198,777 Q263,777 299,747 Q335,717 335,664 L335,458 L256,458 L256,508 Q218,455 141,455 Q91,455 62,481 Q33,507 33,550 Q33,593 65.5,616.5 Q98,640 158,641 L255,641 L255,655 Q255,714 179,714 Q132,714 72,684 L52,740 Q129,777 198,777 M168,509 Q229,509 255,558 L255,600 L174,600 Q109,600 109,557 Q109,535 125,522 Q141,509 168,509"/> 
            <glyph glyph-name="«" unicode="&#xAB;" horiz-adv-x="415" d=" M128,260 L235,86 L139,86 L23,260 L139,434 L235,434 M308,260 L415,86 L319,86 L203,260 L319,434 L415,434"/> 
            <glyph glyph-name="¬" unicode="&#xAC;" horiz-adv-x="486" d=" M486,404 L486,145 L402,145 L402,325 L35,325 L35,404"/> 
            <glyph glyph-name="­" unicode="&#xAD;" horiz-adv-x="307" d=" M307,265 L61,265 L61,344 L307,344"/> 
            <glyph glyph-name="®" unicode="&#xAE;" horiz-adv-x="711" d=" M231,689 Q515,689 613,589.5 Q711,490 711,350 Q711,210 612,109.5 Q513,9 371,9 Q230,9 132,108.5 Q34,208 34,348 Q34,488 231,689 M371,69 Q490,69 572,151.5 Q654,234 654,350 Q654,466 572.5,547.5 Q491,629 373,629 Q254,629 172.5,546.5 Q91,464 91,348 Q91,232 172,150.5 Q253,69 371,69 M517,412 Q517,331 446,303 L524,190 L458,190 L395,292 L380,292 L301,292 L301,190 L244,190 L244,528 L380,528 Q446,528 481.5,498 Q517,468 517,412 M301,340 L380,340 Q419,340 441,358.5 Q463,377 463,411 Q463,444 441,462 Q419,480 380,480 L301,480"/> 
            <glyph glyph-name="¯" unicode="&#xAF;" horiz-adv-x="303" d=" M303,641 L48,641 L48,724 L303,724"/> 
            <glyph glyph-name="°" unicode="&#xB0;" horiz-adv-x="313" d=" M149,810 Q245,810 279,776 Q313,742 313,695 Q313,648 279,614 Q245,580 197,580 Q150,580 115.5,614 Q81,648 81,695 Q81,742 149,810 M225,759 Q169,759 149.5,740 Q130,721 130,695 Q130,669 149.5,650.5 Q169,632 197,632 Q225,632 244.5,650.5 Q264,669 264,695 Q264,721 225,759"/> 
            <glyph glyph-name="±" unicode="&#xB1;" horiz-adv-x="463" d=" M463,430 L463,352 L287,352 L287,181 L212,181 L212,352 L35,352 L35,430 L212,430 L212,601 L287,601 L287,430 M35,100 L463,100 L463,20 L35,20"/> 
            <glyph glyph-name="²" unicode="&#xB2;" horiz-adv-x="348" d=" M191,703 Q253,703 291.5,674.5 Q330,646 330,598 Q330,539 250,462 L142,353 L348,353 L348,287 L37,287 L37,343 L194,504 Q243,551 243,586 Q243,633 178,633 Q121,633 61,581 L28,643 Q107,703 191,703"/> 
            <glyph glyph-name="³" unicode="&#xB3;" horiz-adv-x="320" d=" M181,529 L203,527 Q256,522 288,492.5 Q320,463 320,415 Q320,357 276.5,320 Q233,283 161,283 Q74,283 11,329 L46,395 Q94,347 155,347 Q194,347 216,365 Q238,383 238,414 Q238,476 154,476 L92,476 L92,522 L204,636 L31,636 L31,698 L300,698 L300,649"/> 
            <glyph glyph-name="´" unicode="&#xB4;" horiz-adv-x="286" d=" M286,706 L164,608 L62,608 L168,756"/> 
            <glyph glyph-name="µ" unicode="&#xB5;" horiz-adv-x="590" d=" M590,532 L590,0 L475,0 L475,104 Q423,-2 285,-4 Q244,-4 205,9 L205,-194 L90,-194 L90,532 L205,532 L205,233 Q205,173 238,138.5 Q271,104 329,104 Q396,105 435.5,151.5 Q475,198 475,270 L475,532"/> 
            <glyph glyph-name="¶" unicode="&#xB6;" horiz-adv-x="523" d=" M523,-109 L435,-109 L435,670 L304,670 L304,-109 L217,-109 L217,356 L186,356 Q133,356 94.5,374.5 Q56,393 36.5,423 Q17,453 8,483.5 Q-1,514 -1,545 Q-1,628 55,685 Q111,742 224,742 L523,742"/> 
            <glyph glyph-name="·" unicode="&#xB7;" horiz-adv-x="166" d=" M80,350 Q132,350 149,332.5 Q166,315 166,287 Q166,260 149,242 Q132,224 106,224 Q80,224 63,242 Q46,260 46,287 Q46,315 80,350"/> 
            <glyph glyph-name="¸" unicode="&#xB8;" horiz-adv-x="272" d=" M231,11 L202,-50 Q234,-56 253,-76.5 Q272,-97 272,-129 Q272,-172 241.5,-198 Q211,-224 166,-224 Q116,-224 78,-196 L100,-142 Q126,-162 158,-162 Q179,-162 191.5,-149.5 Q204,-137 204,-121 Q204,-105 191.5,-94 Q179,-83 156,-83 Q139,-83 121,-88 L163,11"/> 
            <glyph glyph-name="¹" unicode="&#xB9;" horiz-adv-x="183" d=" M99,287 L99,631 L16,631 L16,700 L183,700 L183,287"/> 
            <glyph glyph-name="º" unicode="&#xBA;" horiz-adv-x="377" d=" M126,776 Q280,776 328.5,732 Q377,688 377,616 Q377,544 328.5,500 Q280,456 203,456 Q126,456 78,500 Q30,544 30,616 Q30,688 126,776 M244,710 Q162,710 136.5,684 Q111,658 111,615 Q111,572 136.5,546 Q162,520 203,520 Q244,520 269,546 Q294,572 294,615 Q294,658 244,710"/> 
            <glyph glyph-name="»" unicode="&#xBB;" horiz-adv-x="468" d=" M183,261 L76,435 L172,435 L288,261 L172,87 L76,87 M363,261 L256,435 L352,435 L468,261 L352,87 L256,87"/> 
            <glyph glyph-name="¼" unicode="&#xBC;" horiz-adv-x="795" d=" M99,287 L99,631 L16,631 L16,700 L183,700 L183,287 M50,0 L565,700 L675,700 L161,0 M655,159 L655,261 L734,261 L734,159 L795,159 L795,97 L734,97 L734,0 L655,0 L655,97 L451,97 L451,156 L594,413 L674,413 L535,159"/> 
            <glyph glyph-name="½" unicode="&#xBD;" horiz-adv-x="804" d=" M99,287 L99,631 L16,631 L16,700 L183,700 L183,287 M50,0 L565,700 L675,700 L161,0 M647,416 Q709,416 747.5,387.5 Q786,359 786,311 Q786,252 706,175 L598,67 L804,67 L804,0 L493,0 L493,57 L650,217 Q699,266 699,300 Q699,322 682,334.5 Q665,347 634,347 Q577,347 517,295 L484,356 Q561,416 647,416"/> 
            <glyph glyph-name="¾" unicode="&#xBE;" horiz-adv-x="857" d=" M112,0 L627,700 L737,700 L223,0 M181,529 L203,527 Q256,522 288,492.5 Q320,463 320,415 Q320,357 276.5,320 Q233,283 161,283 Q74,283 11,329 L46,395 Q94,347 155,347 Q194,347 216,365 Q238,383 238,414 Q238,476 154,476 L92,476 L92,522 L204,636 L31,636 L31,698 L300,698 L300,649 M717,159 L717,261 L796,261 L796,159 L857,159 L857,97 L796,97 L796,0 L717,0 L717,97 L513,97 L513,156 L656,413 L736,413 L597,159"/> 
            <glyph glyph-name="¿" unicode="&#xBF;" horiz-adv-x="438" d=" M261,408 Q207,408 189,426.5 Q171,445 171,473 Q171,502 189,521 Q207,540 234,540 Q261,540 279,521 Q297,502 297,473 Q297,445 261,408 M348,36 L438,35 Q435,-59 380,-111.5 Q325,-164 231,-164 Q139,-164 85,-120.5 Q31,-77 31,3 Q31,47 47.5,81.5 Q64,116 87,139 Q110,162 133,184 Q156,206 172.5,236 Q189,266 189,303 L277,303 Q277,259 262.5,224.5 Q248,190 228,168 Q208,146 187.5,126.5 Q167,107 152.5,80.5 Q138,54 138,21 Q138,-22 165.5,-44 Q193,-66 241,-66 Q290,-66 318,-40 Q346,-14 348,36"/> 
            <glyph glyph-name="À" unicode="&#xC0;" horiz-adv-x="737" d=" M329,777 L207,875 L325,925 L431,777 M544,158 L191,158 L124,0 L1,0 L310,700 L431,700 L737,0 L611,0 M499,263 L367,574 L235,263"/> 
            <glyph glyph-name="Á" unicode="&#xC1;" horiz-adv-x="737" d=" M404,776 L302,776 L408,924 L526,874 M544,158 L191,158 L124,0 L1,0 L310,700 L431,700 L737,0 L611,0 M499,263 L367,574 L235,263"/> 
            <glyph glyph-name="Â" unicode="&#xC2;" horiz-adv-x="737" d=" M307,779 L213,779 L316,920 L422,920 L525,779 L431,779 L369,867 M544,158 L191,158 L124,0 L1,0 L310,700 L431,700 L737,0 L611,0 M499,263 L367,574 L235,263"/> 
            <glyph glyph-name="Ã" unicode="&#xC3;" horiz-adv-x="737" d=" M319,844 Q282,844 282,795 L208,795 Q208,926 300,926 Q330,926 367.5,898.5 Q405,871 419,871 Q457,871 457,920 L530,920 Q530,789 439,789 Q406,789 369.5,816.5 Q333,844 319,844 M544,158 L191,158 L124,0 L1,0 L310,700 L431,700 L737,0 L611,0 M499,263 L367,574 L235,263"/> 
            <glyph glyph-name="Ä" unicode="&#xC4;" horiz-adv-x="737" d=" M307,794 Q255,794 237.5,812 Q220,830 220,857 Q220,885 237.5,903 Q255,921 281,921 Q307,921 324,903 Q341,885 341,857 Q341,830 307,794 M484,794 Q432,794 414.5,812 Q397,830 397,857 Q397,885 414.5,903 Q432,921 458,921 Q484,921 501,903 Q518,885 518,857 Q518,830 484,794 M544,158 L191,158 L124,0 L1,0 L310,700 L431,700 L737,0 L611,0 M499,263 L367,574 L235,263"/> 
            <glyph glyph-name="Å" unicode="&#xC5;" horiz-adv-x="737" d=" M544,158 L191,158 L124,0 L1,0 L300,676 Q249,712 249,774 Q249,824 285,860 Q321,896 371,896 Q422,896 458,860 Q494,824 494,774 Q494,712 442,675 L737,0 L611,0 M371,840 Q343,840 322.5,820.5 Q302,801 302,774 Q302,747 322,728 Q342,709 371,709 Q400,709 420.5,728 Q441,747 441,774 Q441,801 420.5,820.5 Q400,840 371,840 M499,263 L367,574 L235,263"/> 
            <glyph glyph-name="Æ" unicode="&#xC6;" horiz-adv-x="999" d=" M999,106 L999,0 L488,0 L488,173 L222,173 L124,0 L1,0 L407,700 L987,700 L987,594 L605,594 L605,404 L948,404 L948,299 L605,299 L605,106 M488,265 L488,602 L464,602 L274,265"/> 
            <glyph glyph-name="Ç" unicode="&#xC7;" horiz-adv-x="669" d=" M432,-3 L410,-50 Q442,-56 461,-76.5 Q480,-97 480,-129 Q480,-172 449.5,-198 Q419,-224 374,-224 Q324,-224 286,-196 L308,-142 Q334,-162 366,-162 Q387,-162 399.5,-149.5 Q412,-137 412,-121 Q412,-105 399.5,-94 Q387,-83 364,-83 Q347,-83 329,-88 L365,-4 Q223,8 128.5,108.5 Q34,209 34,351 Q34,500 140.5,601.5 Q247,703 402,703 Q476,703 546.5,674.5 Q617,646 668,595 L599,509 Q561,550 509,574 Q457,598 404,598 Q299,598 226.5,526.5 Q154,455 154,352 Q154,248 226.5,176.5 Q299,105 404,105 Q513,105 599,188 L669,110 Q568,11 432,-3"/> 
            <glyph glyph-name="È" unicode="&#xC8;" horiz-adv-x="604" d=" M406,777 L304,777 L182,875 L300,925 M592,594 L210,594 L210,405 L552,405 L552,299 L210,299 L210,106 L604,106 L604,0 L92,0 L92,700 L592,700"/> 
            <glyph glyph-name="É" unicode="&#xC9;" horiz-adv-x="604" d=" M501,874 L379,776 L277,776 L383,924 M592,594 L210,594 L210,405 L552,405 L552,299 L210,299 L210,106 L604,106 L604,0 L92,0 L92,700 L592,700"/> 
            <glyph glyph-name="Ê" unicode="&#xCA;" horiz-adv-x="604" d=" M500,779 L406,779 L344,867 L282,779 L188,779 L291,920 L397,920 M592,594 L210,594 L210,405 L552,405 L552,299 L210,299 L210,106 L604,106 L604,0 L92,0 L92,700 L592,700"/> 
            <glyph glyph-name="Ë" unicode="&#xCB;" horiz-adv-x="604" d=" M230,921 Q282,921 299,903 Q316,885 316,857 Q316,830 299,812 Q282,794 256,794 Q230,794 212.5,812 Q195,830 195,857 Q195,885 230,921 M407,921 Q459,921 476,903 Q493,885 493,857 Q493,830 476,812 Q459,794 433,794 Q407,794 389.5,812 Q372,830 372,857 Q372,885 407,921 M592,594 L210,594 L210,405 L552,405 L552,299 L210,299 L210,106 L604,106 L604,0 L92,0 L92,700 L592,700"/> 
            <glyph glyph-name="Ì" unicode="&#xCC;" horiz-adv-x="212" d=" M212,777 L110,777 L-12,875 L106,925 M210,0 L92,0 L92,700 L210,700"/> 
            <glyph glyph-name="Í" unicode="&#xCD;" horiz-adv-x="308" d=" M308,874 L186,776 L84,776 L190,924 M210,0 L92,0 L92,700 L210,700"/> 
            <glyph glyph-name="Î" unicode="&#xCE;" horiz-adv-x="307" d=" M307,779 L213,779 L151,867 L89,779 L-5,779 L98,920 L204,920 M210,0 L92,0 L92,700 L210,700"/> 
            <glyph glyph-name="Ï" unicode="&#xCF;" horiz-adv-x="300" d=" M37,921 Q89,921 106,903 Q123,885 123,857 Q123,830 106,812 Q89,794 63,794 Q37,794 19.5,812 Q2,830 2,857 Q2,885 37,921 M214,921 Q266,921 283,903 Q300,885 300,857 Q300,830 283,812 Q266,794 240,794 Q214,794 196.5,812 Q179,830 179,857 Q179,885 214,921 M210,0 L92,0 L92,700 L210,700"/> 
            <glyph glyph-name="Ð" unicode="&#xD0;" horiz-adv-x="761" d=" M112,700 L399,700 Q556,700 658.5,601 Q761,502 761,350 Q761,198 657.5,99 Q554,0 395,0 L112,0 L112,317 L0,317 L0,386 L112,386 M229,106 L402,106 Q505,106 573,174.5 Q641,243 641,349 Q641,455 571,524.5 Q501,594 397,594 L229,594 L229,386 L428,386 L428,317 L229,317"/> 
            <glyph glyph-name="Ñ" unicode="&#xD1;" horiz-adv-x="699" d=" M327,926 Q357,926 394.5,898.5 Q432,871 446,871 Q484,871 484,920 L557,920 Q557,789 466,789 Q433,789 396.5,816.5 Q360,844 346,844 Q309,844 309,795 L235,795 Q235,926 327,926 M699,0 L583,0 L210,502 L210,0 L92,0 L92,700 L208,700 L583,197 L583,700 L699,700"/> 
            <glyph glyph-name="Ò" unicode="&#xD2;" horiz-adv-x="776" d=" M462,777 L360,777 L238,875 L356,925 M248,703 Q562,703 669,601.5 Q776,500 776,350 Q776,200 669,97.5 Q562,-5 405,-5 Q248,-5 141,97.5 Q34,200 34,350 Q34,500 248,703 M406,597 Q302,597 228,525.5 Q154,454 154,350 Q154,246 228.5,173.5 Q303,101 406,101 Q509,101 582,173.5 Q655,246 655,350 Q655,454 582,525.5 Q509,597 406,597"/> 
            <glyph glyph-name="Ó" unicode="&#xD3;" horiz-adv-x="776" d=" M557,874 L435,776 L333,776 L439,924 M248,703 Q562,703 669,601.5 Q776,500 776,350 Q776,200 669,97.5 Q562,-5 405,-5 Q248,-5 141,97.5 Q34,200 34,350 Q34,500 248,703 M406,597 Q302,597 228,525.5 Q154,454 154,350 Q154,246 228.5,173.5 Q303,101 406,101 Q509,101 582,173.5 Q655,246 655,350 Q655,454 582,525.5 Q509,597 406,597"/> 
            <glyph glyph-name="Ô" unicode="&#xD4;" horiz-adv-x="776" d=" M556,779 L462,779 L400,867 L338,779 L244,779 L347,920 L453,920 M248,703 Q562,703 669,601.5 Q776,500 776,350 Q776,200 669,97.5 Q562,-5 405,-5 Q248,-5 141,97.5 Q34,200 34,350 Q34,500 248,703 M406,597 Q302,597 228,525.5 Q154,454 154,350 Q154,246 228.5,173.5 Q303,101 406,101 Q509,101 582,173.5 Q655,246 655,350 Q655,454 582,525.5 Q509,597 406,597"/> 
            <glyph glyph-name="Õ" unicode="&#xD5;" horiz-adv-x="776" d=" M331,926 Q361,926 398.5,898.5 Q436,871 450,871 Q488,871 488,920 L561,920 Q561,789 470,789 Q437,789 400.5,816.5 Q364,844 350,844 Q313,844 313,795 L239,795 Q239,926 331,926 M248,703 Q562,703 669,601.5 Q776,500 776,350 Q776,200 669,97.5 Q562,-5 405,-5 Q248,-5 141,97.5 Q34,200 34,350 Q34,500 248,703 M406,597 Q302,597 228,525.5 Q154,454 154,350 Q154,246 228.5,173.5 Q303,101 406,101 Q509,101 582,173.5 Q655,246 655,350 Q655,454 582,525.5 Q509,597 406,597"/> 
            <glyph glyph-name="Ö" unicode="&#xD6;" horiz-adv-x="776" d=" M286,921 Q338,921 355,903 Q372,885 372,857 Q372,830 355,812 Q338,794 312,794 Q286,794 268.5,812 Q251,830 251,857 Q251,885 286,921 M463,921 Q515,921 532,903 Q549,885 549,857 Q549,830 532,812 Q515,794 489,794 Q463,794 445.5,812 Q428,830 428,857 Q428,885 463,921 M248,703 Q562,703 669,601.5 Q776,500 776,350 Q776,200 669,97.5 Q562,-5 405,-5 Q248,-5 141,97.5 Q34,200 34,350 Q34,500 248,703 M406,597 Q302,597 228,525.5 Q154,454 154,350 Q154,246 228.5,173.5 Q303,101 406,101 Q509,101 582,173.5 Q655,246 655,350 Q655,454 582,525.5 Q509,597 406,597"/> 
            <glyph glyph-name="×" unicode="&#xD7;" horiz-adv-x="427" d=" M304,325 L427,201 L374,145 L250,270 L125,145 L72,201 L195,325 L72,448 L125,504 L250,379 L374,504 L427,448"/> 
            <glyph glyph-name="Ø" unicode="&#xD8;" horiz-adv-x="776" d=" M582,811 L538,681 Q645,644 710.5,554.5 Q776,465 776,350 Q776,200 669,97.5 Q562,-5 405,-5 Q356,-5 309,6 L265,-122 L196,-122 L247,27 Q150,70 92,156.5 Q34,243 34,350 Q34,500 141,601.5 Q248,703 405,703 Q440,703 474,697 L512,811 M154,350 Q154,281 189,223.5 Q224,166 282,133 L439,595 Q417,597 406,597 Q302,597 228,525.5 Q154,454 154,350 M406,101 Q509,101 582,173.5 Q655,246 655,350 Q655,427 613,488.5 Q571,550 502,578 L343,109 Q375,101 406,101"/> 
            <glyph glyph-name="Ù" unicode="&#xD9;" horiz-adv-x="687" d=" M444,777 L342,777 L220,875 L338,925 M687,700 L687,290 Q687,153 606,74 Q525,-5 383,-5 Q241,-5 159.5,74 Q78,153 78,290 L78,700 L196,700 L196,290 Q196,202 246.5,151.5 Q297,101 384,101 Q470,101 519.5,151 Q569,201 569,290 L569,700"/> 
            <glyph glyph-name="Ú" unicode="&#xDA;" horiz-adv-x="687" d=" M539,874 L417,776 L315,776 L421,924 M687,700 L687,290 Q687,153 606,74 Q525,-5 383,-5 Q241,-5 159.5,74 Q78,153 78,290 L78,700 L196,700 L196,290 Q196,202 246.5,151.5 Q297,101 384,101 Q470,101 519.5,151 Q569,201 569,290 L569,700"/> 
            <glyph glyph-name="Û" unicode="&#xDB;" horiz-adv-x="687" d=" M538,779 L444,779 L382,867 L320,779 L226,779 L329,920 L435,920 M687,700 L687,290 Q687,153 606,74 Q525,-5 383,-5 Q241,-5 159.5,74 Q78,153 78,290 L78,700 L196,700 L196,290 Q196,202 246.5,151.5 Q297,101 384,101 Q470,101 519.5,151 Q569,201 569,290 L569,700"/> 
            <glyph glyph-name="Ü" unicode="&#xDC;" horiz-adv-x="687" d=" M268,921 Q320,921 337,903 Q354,885 354,857 Q354,830 337,812 Q320,794 294,794 Q268,794 250.5,812 Q233,830 233,857 Q233,885 268,921 M445,921 Q497,921 514,903 Q531,885 531,857 Q531,830 514,812 Q497,794 471,794 Q445,794 427.5,812 Q410,830 410,857 Q410,885 445,921 M687,700 L687,290 Q687,153 606,74 Q525,-5 383,-5 Q241,-5 159.5,74 Q78,153 78,290 L78,700 L196,700 L196,290 Q196,202 246.5,151.5 Q297,101 384,101 Q470,101 519.5,151 Q569,201 569,290 L569,700"/> 
            <glyph glyph-name="Ý" unicode="&#xDD;" horiz-adv-x="636" d=" M353,776 L251,776 L357,924 L475,874 M379,233 L379,0 L262,0 L262,229 L1,700 L120,700 L320,359 L516,700 L636,700"/> 
            <glyph glyph-name="Þ" unicode="&#xDE;" horiz-adv-x="653" d=" M210,601 L357,601 Q499,601 576,540 Q653,479 653,367 Q653,250 576,186 Q499,122 357,122 L210,122 L210,0 L92,0 L92,700 L210,700 M210,220 L352,220 Q533,220 533,364 Q533,503 352,503 L210,503"/> 
            <glyph glyph-name="ß" unicode="&#xDF;" horiz-adv-x="606" d=" M333,747 Q437,747 501.5,694 Q566,641 566,554 Q566,495 534.5,448 Q503,401 450,381 Q521,367 563.5,323 Q606,279 606,210 Q606,117 534,58.5 Q462,0 343,0 L292,0 L292,89 L352,89 Q416,89 455,122 Q494,155 494,207 Q494,263 449,294 Q404,325 327,325 L314,325 L314,413 Q378,413 416.5,446.5 Q455,480 455,536 Q455,590 421,622 Q387,654 331,654 Q267,654 229.5,611.5 Q192,569 192,496 L192,0 L78,0 L78,488 Q78,607 146.5,677 Q215,747 333,747"/> 
            <glyph glyph-name="à" unicode="&#xE0;" horiz-adv-x="517" d=" M250,609 L128,707 L246,757 L352,609 M404,0 L404,65 Q347,-5 228,-5 Q143,-5 92,41.5 Q41,88 41,160 Q41,233 94,276 Q147,319 242,320 L403,320 L403,336 Q403,387 370.5,415 Q338,443 276,443 Q198,443 119,389 L72,469 Q133,505 181.5,520.5 Q230,536 301,536 Q403,536 459,486.5 Q515,437 516,349 L517,0 M252,86 Q313,86 355.5,114.5 Q398,143 403,187 L403,236 L259,236 Q202,236 175.5,219.5 Q149,203 149,165 Q149,129 176.5,107.5 Q204,86 252,86"/> 
            <glyph glyph-name="á" unicode="&#xE1;" horiz-adv-x="517" d=" M325,608 L223,608 L329,756 L447,706 M404,0 L404,65 Q347,-5 228,-5 Q143,-5 92,41.5 Q41,88 41,160 Q41,233 94,276 Q147,319 242,320 L403,320 L403,336 Q403,387 370.5,415 Q338,443 276,443 Q198,443 119,389 L72,469 Q133,505 181.5,520.5 Q230,536 301,536 Q403,536 459,486.5 Q515,437 516,349 L517,0 M252,86 Q313,86 355.5,114.5 Q398,143 403,187 L403,236 L259,236 Q202,236 175.5,219.5 Q149,203 149,165 Q149,129 176.5,107.5 Q204,86 252,86"/> 
            <glyph glyph-name="â" unicode="&#xE2;" horiz-adv-x="517" d=" M228,611 L134,611 L237,752 L343,752 L446,611 L352,611 L290,699 M404,0 L404,65 Q347,-5 228,-5 Q143,-5 92,41.5 Q41,88 41,160 Q41,233 94,276 Q147,319 242,320 L403,320 L403,336 Q403,387 370.5,415 Q338,443 276,443 Q198,443 119,389 L72,469 Q133,505 181.5,520.5 Q230,536 301,536 Q403,536 459,486.5 Q515,437 516,349 L517,0 M252,86 Q313,86 355.5,114.5 Q398,143 403,187 L403,236 L259,236 Q202,236 175.5,219.5 Q149,203 149,165 Q149,129 176.5,107.5 Q204,86 252,86"/> 
            <glyph glyph-name="ã" unicode="&#xE3;" horiz-adv-x="517" d=" M240,676 Q203,676 203,627 L129,627 Q129,758 221,758 Q251,758 288.5,730.5 Q326,703 340,703 Q378,703 378,752 L451,752 Q451,621 360,621 Q327,621 290.5,648.5 Q254,676 240,676 M404,0 L404,65 Q347,-5 228,-5 Q143,-5 92,41.5 Q41,88 41,160 Q41,233 94,276 Q147,319 242,320 L403,320 L403,336 Q403,387 370.5,415 Q338,443 276,443 Q198,443 119,389 L72,469 Q133,505 181.5,520.5 Q230,536 301,536 Q403,536 459,486.5 Q515,437 516,349 L517,0 M252,86 Q313,86 355.5,114.5 Q398,143 403,187 L403,236 L259,236 Q202,236 175.5,219.5 Q149,203 149,165 Q149,129 176.5,107.5 Q204,86 252,86"/> 
            <glyph glyph-name="ä" unicode="&#xE4;" horiz-adv-x="517" d=" M228,626 Q176,626 158.5,644 Q141,662 141,689 Q141,717 158.5,735 Q176,753 202,753 Q228,753 245,735 Q262,717 262,689 Q262,662 228,626 M405,626 Q353,626 335.5,644 Q318,662 318,689 Q318,717 335.5,735 Q353,753 379,753 Q405,753 422,735 Q439,717 439,689 Q439,662 405,626 M404,0 L404,65 Q347,-5 228,-5 Q143,-5 92,41.5 Q41,88 41,160 Q41,233 94,276 Q147,319 242,320 L403,320 L403,336 Q403,387 370.5,415 Q338,443 276,443 Q198,443 119,389 L72,469 Q133,505 181.5,520.5 Q230,536 301,536 Q403,536 459,486.5 Q515,437 516,349 L517,0 M252,86 Q313,86 355.5,114.5 Q398,143 403,187 L403,236 L259,236 Q202,236 175.5,219.5 Q149,203 149,165 Q149,129 176.5,107.5 Q204,86 252,86"/> 
            <glyph glyph-name="å" unicode="&#xE5;" horiz-adv-x="517" d=" M339,569 Q241,569 206.5,603 Q172,637 172,685 Q172,732 206.5,766.5 Q241,801 290,801 Q339,801 373.5,766.5 Q408,732 408,685 Q408,637 339,569 M318,749 Q262,749 242,730 Q222,711 222,685 Q222,659 242,640 Q262,621 290,621 Q318,621 338,640 Q358,659 358,685 Q358,711 318,749 M404,0 L404,65 Q347,-5 228,-5 Q143,-5 92,41.5 Q41,88 41,160 Q41,233 94,276 Q147,319 242,320 L403,320 L403,336 Q403,387 370.5,415 Q338,443 276,443 Q198,443 119,389 L72,469 Q133,505 181.5,520.5 Q230,536 301,536 Q403,536 459,486.5 Q515,437 516,349 L517,0 M252,86 Q313,86 355.5,114.5 Q398,143 403,187 L403,236 L259,236 Q202,236 175.5,219.5 Q149,203 149,165 Q149,129 176.5,107.5 Q204,86 252,86"/> 
            <glyph glyph-name="æ" unicode="&#xE6;" horiz-adv-x="946" d=" M677,536 Q801,536 873.5,454.5 Q946,373 941,241 L521,241 Q530,171 575.5,130 Q621,89 689,89 Q779,89 839,151 L901,86 Q817,-4 680,-4 Q602,-4 543.5,29.5 Q485,63 454,124 Q390,-5 227,-5 Q142,-5 91.5,39.5 Q41,84 41,155 Q41,227 94,266 Q147,305 243,306 L405,306 L405,336 Q405,387 372,415 Q339,443 277,443 Q192,443 101,389 L72,472 Q189,536 301,536 Q433,536 488,456 Q559,536 677,536 M521,303 L826,303 Q824,369 783.5,410.5 Q743,452 678,452 Q615,452 572.5,410.5 Q530,369 521,303 M414,187 L436,168 Q433,177 429,195 L406,200 L406,244 L265,244 Q209,244 179,223.5 Q149,203 149,165 Q149,125 177.5,100.5 Q206,76 253,76 Q369,76 414,187"/> 
            <glyph glyph-name="ç" unicode="&#xE7;" horiz-adv-x="529" d=" M465,159 L529,95 Q463,8 339,-2 L316,-50 Q348,-56 367,-76.5 Q386,-97 386,-129 Q386,-172 355.5,-198 Q325,-224 280,-224 Q230,-224 192,-196 L214,-142 Q240,-162 272,-162 Q293,-162 305.5,-149.5 Q318,-137 318,-121 Q318,-105 305.5,-94 Q293,-83 270,-83 Q253,-83 235,-88 L271,-2 Q165,8 100,81 Q35,154 35,265 Q35,386 109.5,461 Q184,536 303,536 Q447,536 523,449 L460,375 Q400,436 308,435 Q239,435 194.5,387.5 Q150,340 150,265 Q150,190 194.5,142.5 Q239,95 308,95 Q410,95 465,159"/> 
            <glyph glyph-name="è" unicode="&#xE8;" horiz-adv-x="564" d=" M258,609 L136,707 L254,757 L360,609 M304,536 Q441,536 502.5,453.5 Q564,371 553,222 L151,222 Q165,160 209,124.5 Q253,89 316,89 Q406,89 466,151 L527,86 Q445,-4 307,-4 Q184,-4 109.5,70.5 Q35,145 35,265 Q35,385 110,460 Q185,535 304,536 M149,306 L453,306 Q450,370 410,407 Q370,444 305,444 Q242,444 200.5,407 Q159,370 149,306"/> 
            <glyph glyph-name="é" unicode="&#xE9;" horiz-adv-x="564" d=" M333,608 L231,608 L337,756 L455,706 M304,536 Q441,536 502.5,453.5 Q564,371 553,222 L151,222 Q165,160 209,124.5 Q253,89 316,89 Q406,89 466,151 L527,86 Q445,-4 307,-4 Q184,-4 109.5,70.5 Q35,145 35,265 Q35,385 110,460 Q185,535 304,536 M149,306 L453,306 Q450,370 410,407 Q370,444 305,444 Q242,444 200.5,407 Q159,370 149,306"/> 
            <glyph glyph-name="ê" unicode="&#xEA;" horiz-adv-x="564" d=" M237,611 L143,611 L246,752 L352,752 L455,611 L361,611 L299,699 M304,536 Q441,536 502.5,453.5 Q564,371 553,222 L151,222 Q165,160 209,124.5 Q253,89 316,89 Q406,89 466,151 L527,86 Q445,-4 307,-4 Q184,-4 109.5,70.5 Q35,145 35,265 Q35,385 110,460 Q185,535 304,536 M149,306 L453,306 Q450,370 410,407 Q370,444 305,444 Q242,444 200.5,407 Q159,370 149,306"/> 
            <glyph glyph-name="ë" unicode="&#xEB;" horiz-adv-x="564" d=" M237,626 Q185,626 167.5,644 Q150,662 150,689 Q150,717 167.5,735 Q185,753 211,753 Q237,753 254,735 Q271,717 271,689 Q271,662 237,626 M414,626 Q362,626 344.5,644 Q327,662 327,689 Q327,717 344.5,735 Q362,753 388,753 Q414,753 431,735 Q448,717 448,689 Q448,662 414,626 M304,536 Q441,536 502.5,453.5 Q564,371 553,222 L151,222 Q165,160 209,124.5 Q253,89 316,89 Q406,89 466,151 L527,86 Q445,-4 307,-4 Q184,-4 109.5,70.5 Q35,145 35,265 Q35,385 110,460 Q185,535 304,536 M149,306 L453,306 Q450,370 410,407 Q370,444 305,444 Q242,444 200.5,407 Q159,370 149,306"/> 
            <glyph glyph-name="ì" unicode="&#xEC;" horiz-adv-x="204" d=" M204,609 L102,609 L-20,707 L98,757 M199,0 L85,0 L85,532 L199,532"/> 
            <glyph glyph-name="í" unicode="&#xED;" horiz-adv-x="299" d=" M299,706 L177,608 L75,608 L181,756 M199,0 L85,0 L85,532 L199,532"/> 
            <glyph glyph-name="î" unicode="&#xEE;" horiz-adv-x="298" d=" M298,611 L204,611 L142,699 L80,611 L-14,611 L89,752 L195,752 M199,0 L85,0 L85,532 L199,532"/> 
            <glyph glyph-name="ï" unicode="&#xEF;" horiz-adv-x="291" d=" M28,753 Q80,753 97,735 Q114,717 114,689 Q114,662 97,644 Q80,626 54,626 Q28,626 10.5,644 Q-7,662 -7,689 Q-7,717 28,753 M205,753 Q257,753 274,735 Q291,717 291,689 Q291,662 274,644 Q257,626 231,626 Q205,626 187.5,644 Q170,662 170,689 Q170,717 205,753 M199,0 L85,0 L85,532 L199,532"/> 
            <glyph glyph-name="ð" unicode="&#xF0;" horiz-adv-x="556" d=" M503,636 L405,604 Q556,450 556,265 Q556,142 481.5,68.5 Q407,-5 282,-5 Q170,-5 103,57.5 Q36,120 36,224 Q36,324 98,383.5 Q160,443 263,443 Q320,443 368.5,421 Q417,399 441,362 Q408,470 302,569 L150,519 L131,579 L246,617 Q182,666 123,694 L199,747 Q283,709 352,652 L485,696 M289,97 Q355,97 394.5,132 Q434,167 434,226 Q434,287 394.5,323 Q355,359 289,359 Q224,359 185,324 Q146,289 146,231 Q146,170 185,133.5 Q224,97 289,97"/> 
            <glyph glyph-name="ñ" unicode="&#xF1;" horiz-adv-x="594" d=" M296,676 Q259,676 259,627 L185,627 Q185,758 277,758 Q307,758 344.5,730.5 Q382,703 396,703 Q434,703 434,752 L507,752 Q507,621 416,621 Q383,621 346.5,648.5 Q310,676 296,676 M396,536 Q489,536 541.5,481.5 Q594,427 594,331 L594,0 L479,0 L479,299 Q479,359 445,393.5 Q411,428 351,428 Q287,427 246.5,387 Q206,347 200,283 L200,0 L85,0 L85,532 L200,532 L200,430 Q254,536 396,536"/> 
            <glyph glyph-name="ò" unicode="&#xF2;" horiz-adv-x="590" d=" M374,609 L272,609 L150,707 L268,757 M313,536 Q436,536 513,461.5 Q590,387 590,266 Q590,146 513,71 Q436,-4 313,-4 Q189,-4 112,71 Q35,146 35,266 Q35,387 112,461.5 Q189,536 313,536 M313,437 Q241,437 195.5,389 Q150,341 150,265 Q150,188 195.5,140 Q241,92 313,92 Q385,92 430,140 Q475,188 475,265 Q475,341 429.5,389 Q384,437 313,437"/> 
            <glyph glyph-name="ó" unicode="&#xF3;" horiz-adv-x="590" d=" M469,706 L347,608 L245,608 L351,756 M313,536 Q436,536 513,461.5 Q590,387 590,266 Q590,146 513,71 Q436,-4 313,-4 Q189,-4 112,71 Q35,146 35,266 Q35,387 112,461.5 Q189,536 313,536 M313,437 Q241,437 195.5,389 Q150,341 150,265 Q150,188 195.5,140 Q241,92 313,92 Q385,92 430,140 Q475,188 475,265 Q475,341 429.5,389 Q384,437 313,437"/> 
            <glyph glyph-name="ô" unicode="&#xF4;" horiz-adv-x="590" d=" M469,611 L375,611 L313,699 L251,611 L157,611 L260,752 L366,752 M313,536 Q436,536 513,461.5 Q590,387 590,266 Q590,146 513,71 Q436,-4 313,-4 Q189,-4 112,71 Q35,146 35,266 Q35,387 112,461.5 Q189,536 313,536 M313,437 Q241,437 195.5,389 Q150,341 150,265 Q150,188 195.5,140 Q241,92 313,92 Q385,92 430,140 Q475,188 475,265 Q475,341 429.5,389 Q384,437 313,437"/> 
            <glyph glyph-name="õ" unicode="&#xF5;" horiz-adv-x="590" d=" M243,758 Q273,758 310.5,730.5 Q348,703 362,703 Q400,703 400,752 L473,752 Q473,621 382,621 Q349,621 312.5,648.5 Q276,676 262,676 Q225,676 225,627 L151,627 Q151,758 243,758 M313,536 Q436,536 513,461.5 Q590,387 590,266 Q590,146 513,71 Q436,-4 313,-4 Q189,-4 112,71 Q35,146 35,266 Q35,387 112,461.5 Q189,536 313,536 M313,437 Q241,437 195.5,389 Q150,341 150,265 Q150,188 195.5,140 Q241,92 313,92 Q385,92 430,140 Q475,188 475,265 Q475,341 429.5,389 Q384,437 313,437"/> 
            <glyph glyph-name="ö" unicode="&#xF6;" horiz-adv-x="590" d=" M199,753 Q251,753 268,735 Q285,717 285,689 Q285,662 268,644 Q251,626 225,626 Q199,626 181.5,644 Q164,662 164,689 Q164,717 199,753 M376,753 Q428,753 445,735 Q462,717 462,689 Q462,662 445,644 Q428,626 402,626 Q376,626 358.5,644 Q341,662 341,689 Q341,717 376,753 M313,536 Q436,536 513,461.5 Q590,387 590,266 Q590,146 513,71 Q436,-4 313,-4 Q189,-4 112,71 Q35,146 35,266 Q35,387 112,461.5 Q189,536 313,536 M313,437 Q241,437 195.5,389 Q150,341 150,265 Q150,188 195.5,140 Q241,92 313,92 Q385,92 430,140 Q475,188 475,265 Q475,341 429.5,389 Q384,437 313,437"/> 
            <glyph glyph-name="÷" unicode="&#xF7;" horiz-adv-x="463" d=" M217,572 Q269,572 286.5,554 Q304,536 304,509 Q304,481 286.5,463 Q269,445 243,445 Q217,445 200,463 Q183,481 183,509 Q183,536 217,572 M463,285 L35,285 L35,364 L463,364 M217,217 Q269,217 286.5,199 Q304,181 304,154 Q304,126 286.5,108 Q269,90 243,90 Q217,90 200,108 Q183,126 183,154 Q183,181 217,217"/> 
            <glyph glyph-name="ø" unicode="&#xF8;" horiz-adv-x="590" d=" M468,665 L421,518 Q499,490 544.5,423.5 Q590,357 590,266 Q590,146 513,71 Q436,-4 313,-4 Q284,-4 254,1 L206,-146 L154,-146 L206,14 Q127,42 81,108.5 Q35,175 35,266 Q35,387 112,461.5 Q189,536 313,536 Q341,536 373,531 L416,665 M144,265 Q144,208 168,165 Q192,122 234,101 L345,444 Q330,447 313,447 Q238,447 191,396.5 Q144,346 144,265 M313,83 Q388,83 435,133.5 Q482,184 482,265 Q482,321 458,364.5 Q434,408 392,429 L281,86 Q296,83 313,83"/> 
            <glyph glyph-name="ù" unicode="&#xF9;" horiz-adv-x="568" d=" M283,609 L161,707 L279,757 L385,609 M568,532 L568,0 L453,0 L453,104 Q401,-2 263,-4 Q172,-4 120,51 Q68,106 68,201 L68,532 L183,532 L183,233 Q183,173 216,138.5 Q249,104 307,104 Q374,105 413.5,151.5 Q453,198 453,270 L453,532"/> 
            <glyph glyph-name="ú" unicode="&#xFA;" horiz-adv-x="568" d=" M358,608 L256,608 L362,756 L480,706 M568,532 L568,0 L453,0 L453,104 Q401,-2 263,-4 Q172,-4 120,51 Q68,106 68,201 L68,532 L183,532 L183,233 Q183,173 216,138.5 Q249,104 307,104 Q374,105 413.5,151.5 Q453,198 453,270 L453,532"/> 
            <glyph glyph-name="û" unicode="&#xFB;" horiz-adv-x="568" d=" M261,611 L167,611 L270,752 L376,752 L479,611 L385,611 L323,699 M568,532 L568,0 L453,0 L453,104 Q401,-2 263,-4 Q172,-4 120,51 Q68,106 68,201 L68,532 L183,532 L183,233 Q183,173 216,138.5 Q249,104 307,104 Q374,105 413.5,151.5 Q453,198 453,270 L453,532"/> 
            <glyph glyph-name="ü" unicode="&#xFC;" horiz-adv-x="568" d=" M261,626 Q209,626 191.5,644 Q174,662 174,689 Q174,717 191.5,735 Q209,753 235,753 Q261,753 278,735 Q295,717 295,689 Q295,662 261,626 M438,626 Q386,626 368.5,644 Q351,662 351,689 Q351,717 368.5,735 Q386,753 412,753 Q438,753 455,735 Q472,717 472,689 Q472,662 438,626 M568,532 L568,0 L453,0 L453,104 Q401,-2 263,-4 Q172,-4 120,51 Q68,106 68,201 L68,532 L183,532 L183,233 Q183,173 216,138.5 Q249,104 307,104 Q374,105 413.5,151.5 Q453,198 453,270 L453,532"/> 
            <glyph glyph-name="ý" unicode="&#xFD;" horiz-adv-x="536" d=" M424,706 L302,608 L200,608 L306,756 M536,532 L294,-73 Q244,-199 121,-199 Q52,-199 -2,-154 L47,-65 Q83,-91 116,-91 Q170,-91 197,-32 L215,8 L-5,532 L114,532 L273,129 L421,532"/> 
            <glyph glyph-name="þ" unicode="&#xFE;" horiz-adv-x="645" d=" M391,536 Q504,536 574.5,460.5 Q645,385 645,264 Q645,144 576,70 Q507,-4 393,-4 Q265,-4 205,92 L205,-194 L90,-194 L90,742 L205,742 L205,440 Q265,536 391,536 M296,94 Q438,94 483.5,142.5 Q529,191 529,268 Q529,343 483.5,391.5 Q438,440 367,440 Q296,440 250.5,391.5 Q205,343 205,268 Q205,191 296,94"/> 
            <glyph glyph-name="ÿ" unicode="&#xFF;" horiz-adv-x="536" d=" M153,753 Q205,753 222,735 Q239,717 239,689 Q239,662 222,644 Q205,626 179,626 Q153,626 135.5,644 Q118,662 118,689 Q118,717 153,753 M330,753 Q382,753 399,735 Q416,717 416,689 Q416,662 399,644 Q382,626 356,626 Q330,626 312.5,644 Q295,662 295,689 Q295,717 330,753 M536,532 L294,-73 Q244,-199 121,-199 Q52,-199 -2,-154 L47,-65 Q83,-91 116,-91 Q170,-91 197,-32 L215,8 L-5,532 L114,532 L273,129 L421,532"/> 
            <glyph glyph-name="Ā" unicode="&#x100;" horiz-adv-x="737" d=" M497,809 L242,809 L242,892 L497,892 M544,158 L191,158 L124,0 L1,0 L310,700 L431,700 L737,0 L611,0 M499,263 L367,574 L235,263"/> 
            <glyph glyph-name="ā" unicode="&#x101;" horiz-adv-x="517" d=" M418,641 L163,641 L163,724 L418,724 M404,0 L404,65 Q347,-5 228,-5 Q143,-5 92,41.5 Q41,88 41,160 Q41,233 94,276 Q147,319 242,320 L403,320 L403,336 Q403,387 370.5,415 Q338,443 276,443 Q198,443 119,389 L72,469 Q133,505 181.5,520.5 Q230,536 301,536 Q403,536 459,486.5 Q515,437 516,349 L517,0 M252,86 Q313,86 355.5,114.5 Q398,143 403,187 L403,236 L259,236 Q202,236 175.5,219.5 Q149,203 149,165 Q149,129 176.5,107.5 Q204,86 252,86"/> 
            <glyph glyph-name="Ă" unicode="&#x102;" horiz-adv-x="737" d=" M429,774 Q309,774 269.5,813.5 Q230,853 228,916 L306,916 Q308,887 325.5,869 Q343,851 369,851 Q395,851 412.5,869 Q430,887 432,916 L510,916 Q508,853 429,774 M544,158 L191,158 L124,0 L1,0 L310,700 L431,700 L737,0 L611,0 M499,263 L367,574 L235,263"/> 
            <glyph glyph-name="ă" unicode="&#x103;" horiz-adv-x="517" d=" M350,606 Q230,606 190.5,645.5 Q151,685 149,748 L227,748 Q229,719 246.5,701 Q264,683 290,683 Q316,683 333.5,701 Q351,719 353,748 L431,748 Q429,685 350,606 M404,0 L404,65 Q347,-5 228,-5 Q143,-5 92,41.5 Q41,88 41,160 Q41,233 94,276 Q147,319 242,320 L403,320 L403,336 Q403,387 370.5,415 Q338,443 276,443 Q198,443 119,389 L72,469 Q133,505 181.5,520.5 Q230,536 301,536 Q403,536 459,486.5 Q515,437 516,349 L517,0 M252,86 Q313,86 355.5,114.5 Q398,143 403,187 L403,236 L259,236 Q202,236 175.5,219.5 Q149,203 149,165 Q149,129 176.5,107.5 Q204,86 252,86"/> 
            <glyph glyph-name="Ą" unicode="&#x104;" horiz-adv-x="768" d=" M738,0 L705,0 Q656,-69 656,-105 Q656,-137 686,-137 Q710,-137 735,-105 L768,-144 Q733,-201 673,-201 Q641,-201 617.5,-181 Q594,-161 594,-123 Q594,-74 646,0 L612,0 L544,158 L192,158 L124,0 L1,0 L310,700 L432,700 M234,262 L502,262 L368,574"/> 
            <glyph glyph-name="ą" unicode="&#x105;" horiz-adv-x="545" d=" M301,536 Q403,536 459,486.5 Q515,437 517,349 L517,0 L483,0 Q433,-69 433,-105 Q433,-137 463,-137 Q487,-137 512,-105 L545,-144 Q509,-201 450,-201 Q418,-201 394.5,-181.5 Q371,-162 371,-123 Q371,-71 425,0 L404,0 L404,65 Q347,-5 228,-5 Q143,-5 92,41.5 Q41,88 41,160 Q41,233 94,276 Q147,319 241,320 L403,320 L403,336 Q401,443 275,443 Q198,443 119,389 L72,469 Q133,505 181,520.5 Q229,536 301,536 M404,236 L259,236 Q201,236 175,219.5 Q149,203 149,165 Q149,129 176.5,107.5 Q204,86 252,86 Q311,86 356.5,116.5 Q402,147 404,186"/> 
            <glyph glyph-name="Ć" unicode="&#x106;" horiz-adv-x="669" d=" M529,874 L407,776 L305,776 L411,924 M402,703 Q476,703 546.5,674.5 Q617,646 668,595 L599,509 Q561,550 509,574 Q457,598 404,598 Q299,598 226.5,526.5 Q154,455 154,352 Q154,248 226.5,176.5 Q299,105 404,105 Q513,105 599,188 L669,110 Q615,57 543,26 Q471,-5 398,-5 Q244,-5 139,97.5 Q34,200 34,351 Q34,500 140.5,601.5 Q247,703 402,703"/> 
            <glyph glyph-name="ć" unicode="&#x107;" horiz-adv-x="529" d=" M444,706 L322,608 L220,608 L326,756 M303,536 Q447,536 523,449 L460,375 Q400,436 308,435 Q239,435 194.5,387.5 Q150,340 150,265 Q150,190 194.5,142.5 Q239,95 308,95 Q410,95 465,159 L529,95 Q454,-4 303,-4 Q184,-4 109.5,70.5 Q35,145 35,265 Q35,386 109.5,461 Q184,536 303,536"/> 
            <glyph glyph-name="Č" unicode="&#x10C;" horiz-adv-x="669" d=" M204,920 L306,920 L369,827 L432,920 L534,920 L426,770 L312,770 M402,703 Q476,703 546.5,674.5 Q617,646 668,595 L599,509 Q561,550 509,574 Q457,598 404,598 Q299,598 226.5,526.5 Q154,455 154,352 Q154,248 226.5,176.5 Q299,105 404,105 Q513,105 599,188 L669,110 Q615,57 543,26 Q471,-5 398,-5 Q244,-5 139,97.5 Q34,200 34,351 Q34,500 140.5,601.5 Q247,703 402,703"/> 
            <glyph glyph-name="č" unicode="&#x10D;" horiz-adv-x="529" d=" M120,752 L222,752 L285,659 L348,752 L450,752 L342,602 L228,602 M303,536 Q447,536 523,449 L460,375 Q400,436 308,435 Q239,435 194.5,387.5 Q150,340 150,265 Q150,190 194.5,142.5 Q239,95 308,95 Q410,95 465,159 L529,95 Q454,-4 303,-4 Q184,-4 109.5,70.5 Q35,145 35,265 Q35,386 109.5,461 Q184,536 303,536"/> 
            <glyph glyph-name="Ď" unicode="&#x10E;" horiz-adv-x="741" d=" M197,920 L299,920 L362,827 L425,920 L527,920 L419,770 L305,770 M92,700 L379,700 Q536,700 638.5,601 Q741,502 741,350 Q741,198 638,99 Q535,0 376,0 L92,0 M210,594 L210,106 L382,106 Q485,106 553.5,174.5 Q622,243 622,349 Q622,455 551.5,524.5 Q481,594 377,594"/> 
            <glyph glyph-name="ď" unicode="&#x10F;" horiz-adv-x="775" d=" M477,742 L592,742 L592,0 L477,0 L477,91 Q418,-5 290,-5 Q176,-5 105.5,70.5 Q35,146 35,268 Q35,388 105,462.5 Q175,537 288,537 Q416,537 477,440 M714,685 Q739,685 757,667.5 Q775,650 775,621 Q775,594 757,568 L700,482 L641,482 L679,569 Q652,587 652,621 Q652,649 669.5,667 Q687,685 714,685 M242,91 Q386,91 431.5,139.5 Q477,188 477,264 Q477,341 431.5,390 Q386,439 314,439 Q242,439 196.5,390 Q151,341 150,264 Q151,188 242,91"/> 
            <glyph glyph-name="Đ" unicode="&#x110;" horiz-adv-x="741" d=" M493,809 L238,809 L238,892 L493,892 M92,700 L379,700 Q536,700 638.5,601 Q741,502 741,350 Q741,198 638,99 Q535,0 376,0 L92,0 M210,594 L210,106 L382,106 Q485,106 553.5,174.5 Q622,243 622,349 Q622,455 551.5,524.5 Q481,594 377,594"/> 
            <glyph glyph-name="đ" unicode="&#x111;" horiz-adv-x="661" d=" M661,616 L592,616 L592,0 L477,0 L477,91 Q418,-5 290,-5 Q176,-5 105.5,70.5 Q35,146 35,268 Q35,388 105,462.5 Q175,537 288,537 Q416,537 477,440 L477,616 L378,616 L378,682 L477,682 L477,742 L592,742 L592,682 L661,682 M242,91 Q386,91 431.5,139.5 Q477,188 477,264 Q477,341 431.5,390 Q386,439 314,439 Q242,439 196.5,390 Q151,341 150,264 Q151,188 242,91"/> 
            <glyph glyph-name="Ē" unicode="&#x112;" horiz-adv-x="604" d=" M472,809 L217,809 L217,892 L472,892 M592,594 L210,594 L210,405 L552,405 L552,299 L210,299 L210,106 L604,106 L604,0 L92,0 L92,700 L592,700"/> 
            <glyph glyph-name="ē" unicode="&#x113;" horiz-adv-x="564" d=" M426,641 L171,641 L171,724 L426,724 M304,536 Q441,536 502.5,453.5 Q564,371 553,222 L151,222 Q165,160 209,124.5 Q253,89 316,89 Q406,89 466,151 L527,86 Q445,-4 307,-4 Q184,-4 109.5,70.5 Q35,145 35,265 Q35,385 110,460 Q185,535 304,536 M149,306 L453,306 Q450,370 410,407 Q370,444 305,444 Q242,444 200.5,407 Q159,370 149,306"/> 
            <glyph glyph-name="Ė" unicode="&#x116;" horiz-adv-x="604" d=" M315,922 Q373,922 392,902.5 Q411,883 411,852 Q411,822 392,802.5 Q373,783 344,783 Q315,783 296,802.5 Q277,822 277,852 Q277,883 315,922 M592,594 L210,594 L210,405 L552,405 L552,299 L210,299 L210,106 L604,106 L604,0 L92,0 L92,700 L592,700"/> 
            <glyph glyph-name="ė" unicode="&#x117;" horiz-adv-x="564" d=" M328,615 Q270,615 251,634.5 Q232,654 232,684 Q232,715 251,734.5 Q270,754 299,754 Q328,754 347,734.5 Q366,715 366,684 Q366,654 328,615 M304,536 Q441,536 502.5,453.5 Q564,371 553,222 L151,222 Q165,160 209,124.5 Q253,89 316,89 Q406,89 466,151 L527,86 Q445,-4 307,-4 Q184,-4 109.5,70.5 Q35,145 35,265 Q35,385 110,460 Q185,535 304,536 M149,306 L453,306 Q450,370 410,407 Q370,444 305,444 Q242,444 200.5,407 Q159,370 149,306"/> 
            <glyph glyph-name="Ę" unicode="&#x118;" horiz-adv-x="613" d=" M601,602 L210,602 L210,404 L561,404 L561,307 L210,307 L210,98 L613,98 L613,0 L547,0 Q497,-69 497,-105 Q497,-120 505.5,-128.5 Q514,-137 527,-137 Q552,-137 577,-105 L610,-144 Q572,-201 514,-201 Q482,-201 459,-181 Q436,-161 436,-123 Q436,-73 488,0 L92,0 L92,700 L601,700"/> 
            <glyph glyph-name="ę" unicode="&#x119;" horiz-adv-x="564" d=" M304,535 Q435,539 499.5,455 Q564,371 554,222 L151,222 Q165,160 207.5,124 Q250,88 316,88 Q405,88 466,151 L527,86 Q423,-37 423,-103 Q423,-137 453,-137 Q477,-137 501,-105 L534,-144 Q497,-201 440,-201 Q407,-201 384,-181.5 Q361,-162 361,-122 Q361,-57 424,28 Q370,-4 302,-4 Q184,-4 109.5,71 Q35,146 35,267 Q35,384 106,458 Q177,532 304,535 M370,444 Q242,444 198.5,406 Q155,368 149,306 L453,306 Q450,368 370,444"/> 
            <glyph glyph-name="Ě" unicode="&#x11A;" horiz-adv-x="604" d=" M176,920 L278,920 L341,827 L404,920 L506,920 L398,770 L284,770 M592,594 L210,594 L210,405 L552,405 L552,299 L210,299 L210,106 L604,106 L604,0 L92,0 L92,700 L592,700"/> 
            <glyph glyph-name="ě" unicode="&#x11B;" horiz-adv-x="564" d=" M239,602 L131,752 L233,752 L296,659 L359,752 L461,752 L353,602 M304,536 Q441,536 502.5,453.5 Q564,371 553,222 L151,222 Q165,160 209,124.5 Q253,89 316,89 Q406,89 466,151 L527,86 Q445,-4 307,-4 Q184,-4 109.5,70.5 Q35,145 35,265 Q35,385 110,460 Q185,535 304,536 M149,306 L453,306 Q450,370 410,407 Q370,444 305,444 Q242,444 200.5,407 Q159,370 149,306"/> 
            <glyph glyph-name="Ğ" unicode="&#x11E;" horiz-adv-x="678" d=" M447,774 Q327,774 287.5,813.5 Q248,853 246,916 L324,916 Q326,887 343.5,869 Q361,851 387,851 Q413,851 430.5,869 Q448,887 450,916 L528,916 Q526,853 447,774 M571,344 L674,344 L674,86 Q620,45 546.5,20 Q473,-5 402,-5 Q247,-5 140.5,97.5 Q34,200 34,350 Q34,500 142,601.5 Q250,703 409,703 Q483,703 554.5,676.5 Q626,650 678,605 L611,518 Q525,598 409,598 Q302,598 228,526 Q154,454 154,350 Q154,245 228.5,173 Q303,101 410,101 Q491,101 571,149"/> 
            <glyph glyph-name="ğ" unicode="&#x11F;" horiz-adv-x="565" d=" M380,606 Q260,606 220.5,645.5 Q181,685 179,748 L257,748 Q259,719 276.5,701 Q294,683 320,683 Q346,683 363.5,701 Q381,719 383,748 L461,748 Q459,685 380,606 M565,532 L565,52 Q565,-62 490,-129.5 Q415,-197 289,-197 Q171,-197 68,-127 L117,-44 Q195,-102 284,-102 Q360,-102 405.5,-61 Q451,-20 451,49 L451,116 Q395,26 275,26 Q167,26 101,97 Q35,168 35,283 Q35,396 100,465.5 Q165,535 271,536 Q393,537 451,446 L451,532 M298,116 Q365,116 408,162 Q451,208 451,280 Q451,352 408.5,397.5 Q366,443 298,443 Q230,443 187,397.5 Q144,352 143,280 Q144,208 186.5,162 Q229,116 298,116"/> 
            <glyph glyph-name="Ģ" unicode="&#x122;" horiz-adv-x="678" d=" M571,344 L674,344 L674,86 Q620,45 546.5,20 Q473,-5 402,-5 Q247,-5 140.5,97.5 Q34,200 34,350 Q34,500 142,601.5 Q250,703 409,703 Q483,703 554.5,676.5 Q626,650 678,605 L611,518 Q525,598 409,598 Q302,598 228,526 Q154,454 154,350 Q154,245 228.5,173 Q303,101 410,101 Q491,101 571,149 M393,-49 Q418,-49 436,-66.5 Q454,-84 454,-113 Q454,-139 436,-165 L379,-251 L320,-251 L358,-165 Q331,-147 331,-113 Q331,-85 348.5,-67 Q366,-49 393,-49"/> 
            <glyph glyph-name="ģ" unicode="&#x123;" horiz-adv-x="565" d=" M314,581 Q289,581 271,598.5 Q253,616 253,645 Q253,671 271,697 L328,783 L387,783 L349,697 Q376,679 376,645 Q376,617 358.5,599 Q341,581 314,581 M565,532 L565,52 Q565,-62 490,-129.5 Q415,-197 289,-197 Q171,-197 68,-127 L117,-44 Q195,-102 284,-102 Q360,-102 405.5,-61 Q451,-20 451,49 L451,116 Q395,26 275,26 Q167,26 101,97 Q35,168 35,283 Q35,396 100,465.5 Q165,535 271,536 Q393,537 451,446 L451,532 M298,116 Q365,116 408,162 Q451,208 451,280 Q451,352 408.5,397.5 Q366,443 298,443 Q230,443 187,397.5 Q144,352 143,280 Q144,208 186.5,162 Q229,116 298,116"/> 
            <glyph glyph-name="ħ" unicode="&#x127;" horiz-adv-x="600" d=" M402,536 Q495,536 547.5,481.5 Q600,427 600,331 L600,0 L485,0 L485,299 Q485,359 451,393.5 Q417,428 357,428 Q287,427 246,380.5 Q205,334 205,262 L205,0 L90,0 L90,589 L6,589 L6,658 L90,658 L90,742 L205,742 L205,658 L346,658 L346,589 L205,589 L205,428 Q260,536 402,536"/> 
            <glyph glyph-name="Ĩ" unicode="&#x128;" horiz-adv-x="312" d=" M82,926 Q112,926 149.5,898.5 Q187,871 201,871 Q239,871 239,920 L312,920 Q312,789 221,789 Q188,789 151.5,816.5 Q115,844 101,844 Q64,844 64,795 L-10,795 Q-10,926 82,926 M210,0 L92,0 L92,700 L210,700"/> 
            <glyph glyph-name="ĩ" unicode="&#x129;" horiz-adv-x="303" d=" M73,758 Q103,758 140.5,730.5 Q178,703 192,703 Q230,703 230,752 L303,752 Q303,621 212,621 Q179,621 142.5,648.5 Q106,676 92,676 Q55,676 55,627 L-19,627 Q-19,758 73,758 M199,0 L85,0 L85,532 L199,532"/> 
            <glyph glyph-name="Ī" unicode="&#x12A;" horiz-adv-x="279" d=" M279,809 L24,809 L24,892 L279,892 M210,0 L92,0 L92,700 L210,700"/> 
            <glyph glyph-name="ī" unicode="&#x12B;" horiz-adv-x="270" d=" M270,641 L15,641 L15,724 L270,724 M199,0 L85,0 L85,532 L199,532"/> 
            <glyph glyph-name="Į" unicode="&#x12E;" horiz-adv-x="249" d=" M216,-105 L249,-144 Q213,-201 154,-201 Q122,-201 98.5,-181.5 Q75,-162 75,-123 Q75,-74 127,0 L92,0 L92,700 L210,700 L210,0 L186,0 Q137,-69 137,-105 Q137,-120 145,-128.5 Q153,-137 166,-137 Q191,-137 216,-105"/> 
            <glyph glyph-name="į" unicode="&#x12F;" horiz-adv-x="232" d=" M106,754 Q164,754 183,734.5 Q202,715 202,684 Q202,653 183,633.5 Q164,614 135,614 Q106,614 87,633.5 Q68,653 68,684 Q68,715 106,754 M193,0 L169,0 Q120,-69 120,-105 Q120,-137 150,-137 Q174,-137 199,-105 L232,-144 Q196,-201 137,-201 Q105,-201 81.5,-181.5 Q58,-162 58,-123 Q58,-74 110,0 L78,0 L78,532 L193,532"/> 
            <glyph glyph-name="İ" unicode="&#x130;" horiz-adv-x="218" d=" M122,922 Q180,922 199,902.5 Q218,883 218,852 Q218,822 199,802.5 Q180,783 151,783 Q122,783 103,802.5 Q84,822 84,852 Q84,883 122,922 M210,0 L92,0 L92,700 L210,700"/> 
            <glyph glyph-name="ı" unicode="&#x131;" horiz-adv-x="199" d=" M199,0 L85,0 L85,532 L199,532"/> 
            <glyph glyph-name="Ĳ" unicode="&#x132;" horiz-adv-x="724" d=" M210,0 L92,0 L92,700 L210,700 M724,700 L724,216 Q724,111 666,53 Q608,-5 506,-5 Q382,-5 300,96 L356,186 Q427,109 505,109 Q553,109 579,137.5 Q605,166 605,220 L605,594 L363,594 L363,700"/> 
            <glyph glyph-name="ĳ" unicode="&#x133;" horiz-adv-x="496" d=" M113,754 Q171,754 190,734.5 Q209,715 209,684 Q209,654 190,634.5 Q171,615 142,615 Q113,615 94,634.5 Q75,654 75,684 Q75,715 113,754 M425,754 Q456,754 476,734.5 Q496,715 496,684 Q496,654 476,634 Q456,614 425,614 Q395,614 375,634 Q355,654 355,684 Q355,715 375,734.5 Q395,754 425,754 M199,0 L85,0 L85,532 L199,532 M482,532 L482,-15 Q482,-104 431,-151.5 Q380,-199 310,-199 Q248,-199 199,-163 L237,-74 Q271,-98 305,-98 Q333,-98 350.5,-80 Q368,-62 368,-26 L368,532"/> 
            <glyph glyph-name="Ĵ" unicode="&#x134;" horiz-adv-x="422" d=" M394,779 L300,779 L238,867 L176,779 L82,779 L185,920 L291,920 M422,700 L422,216 Q422,111 364,53 Q306,-5 204,-5 Q80,-5 -2,96 L54,186 Q125,109 203,109 Q251,109 277,137.5 Q303,166 303,220 L303,594 L61,594 L61,700"/> 
            <glyph glyph-name="ĵ" unicode="&#x135;" horiz-adv-x="293" d=" M293,611 L199,611 L137,699 L75,611 L-19,611 L84,752 L190,752 M199,532 L199,-24 Q199,-108 156,-153.5 Q113,-199 36,-198 Q-37,-196 -91,-162 L-62,-78 Q-28,-100 12,-102 Q47,-103 65.5,-78.5 Q84,-54 84,-7 L84,532"/> 
            <glyph glyph-name="Ķ" unicode="&#x136;" horiz-adv-x="701" d=" M701,0 L559,0 L329,309 L210,178 L210,0 L92,0 L92,700 L210,700 L210,338 L544,700 L683,700 L412,401 M359,-49 Q384,-49 402,-66.5 Q420,-84 420,-113 Q420,-139 402,-165 L345,-251 L286,-251 L324,-165 Q297,-147 297,-113 Q297,-85 314.5,-67 Q332,-49 359,-49"/> 
            <glyph glyph-name="ķ" unicode="&#x137;" horiz-adv-x="587" d=" M173,0 L150,-47 Q181,-52 200,-73 Q219,-94 220,-123 Q221,-167 190.5,-194 Q160,-221 110,-221 Q62,-221 25,-194 L48,-140 Q70,-159 100,-159 Q124,-159 138.5,-145.5 Q153,-132 152,-112 Q152,-93 138.5,-81 Q125,-69 104,-69 Q96,-69 72,-72 L106,0 L90,0 L90,742 L205,742 L205,294 L440,532 L572,532 L375,326 L587,0 L451,0 L295,244 L205,149 L205,0"/> 
            <glyph glyph-name="ĸ" unicode="&#x138;" horiz-adv-x="582" d=" M291,244 L199,148 L199,0 L85,0 L85,532 L199,532 L199,294 L435,532 L567,532 L370,326 L582,0 L446,0"/> 
            <glyph glyph-name="Ĺ" unicode="&#x139;" horiz-adv-x="513" d=" M310,874 L188,776 L86,776 L192,924 M210,107 L513,107 L513,0 L92,0 L92,700 L210,700"/> 
            <glyph glyph-name="ĺ" unicode="&#x13A;" horiz-adv-x="305" d=" M305,916 L183,818 L81,818 L187,966 M205,0 L90,0 L90,742 L205,742"/> 
            <glyph glyph-name="Ļ" unicode="&#x13B;" horiz-adv-x="513" d=" M513,107 L513,0 L92,0 L92,700 L210,700 L210,107 M296,-49 Q321,-49 339,-66.5 Q357,-84 357,-113 Q357,-139 339,-165 L282,-251 L223,-251 L261,-165 Q234,-147 234,-113 Q234,-85 251.5,-67 Q269,-49 296,-49"/> 
            <glyph glyph-name="ļ" unicode="&#x13C;" horiz-adv-x="215" d=" M205,0 L90,0 L90,742 L205,742 M154,-49 Q179,-49 197,-66.5 Q215,-84 215,-113 Q215,-139 197,-165 L140,-251 L81,-251 L119,-165 Q92,-147 92,-113 Q92,-85 109.5,-67 Q127,-49 154,-49"/> 
            <glyph glyph-name="Ľ" unicode="&#x13D;" horiz-adv-x="513" d=" M513,107 L513,0 L92,0 L92,700 L210,700 L210,107 M365,466 L403,553 Q376,571 376,605 Q376,633 393.5,651 Q411,669 438,669 Q463,669 481,651.5 Q499,634 499,605 Q499,578 481,552 L424,466"/> 
            <glyph glyph-name="ľ" unicode="&#x13E;" horiz-adv-x="376" d=" M90,742 L205,742 L205,0 L90,0 M315,685 Q340,685 358,667.5 Q376,650 376,621 Q376,594 358,568 L301,482 L242,482 L280,569 Q253,587 253,621 Q253,649 270.5,667 Q288,685 315,685"/> 
            <glyph glyph-name="Ŀ" unicode="&#x13F;" horiz-adv-x="513" d=" M210,107 L513,107 L513,0 L92,0 L92,700 L210,700 M370,528 Q422,528 439,510.5 Q456,493 456,465 Q456,437 439,419 Q422,401 396,401 Q370,401 353,419 Q336,437 336,465 Q336,493 370,528"/> 
            <glyph glyph-name="ŀ" unicode="&#x140;" horiz-adv-x="365" d=" M205,0 L90,0 L90,742 L205,742 M304,374 Q330,374 347.5,355.5 Q365,337 365,309 Q365,282 347.5,264 Q330,246 304,246 Q277,246 259.5,264 Q242,282 242,309 Q242,337 259.5,355.5 Q277,374 304,374"/> 
            <glyph glyph-name="Ł" unicode="&#x141;" horiz-adv-x="530" d=" M530,107 L530,0 L109,0 L109,368 L26,344 L6,420 L109,450 L109,700 L226,700 L226,485 L386,532 L406,455 L226,402 L226,107"/> 
            <glyph glyph-name="ł" unicode="&#x142;" horiz-adv-x="337" d=" M222,421 L222,0 L107,0 L107,388 L-1,356 L-21,432 L107,470 L107,742 L222,742 L222,504 L317,532 L337,455"/> 
            <glyph glyph-name="Ń" unicode="&#x143;" horiz-adv-x="699" d=" M553,874 L431,776 L329,776 L435,924 M699,0 L583,0 L210,502 L210,0 L92,0 L92,700 L208,700 L583,197 L583,700 L699,700"/> 
            <glyph glyph-name="ń" unicode="&#x144;" horiz-adv-x="594" d=" M381,608 L279,608 L385,756 L503,706 M396,536 Q489,536 541.5,481.5 Q594,427 594,331 L594,0 L479,0 L479,299 Q479,359 445,393.5 Q411,428 351,428 Q287,427 246.5,387 Q206,347 200,283 L200,0 L85,0 L85,532 L200,532 L200,430 Q254,536 396,536"/> 
            <glyph glyph-name="Ņ" unicode="&#x145;" horiz-adv-x="699" d=" M699,700 L699,0 L583,0 L210,502 L210,0 L92,0 L92,700 L208,700 L583,197 L583,700 M402,-49 Q427,-49 445,-66.5 Q463,-84 463,-113 Q463,-139 445,-165 L388,-251 L329,-251 L367,-165 Q340,-147 340,-113 Q340,-85 357.5,-67 Q375,-49 402,-49"/> 
            <glyph glyph-name="ņ" unicode="&#x146;" horiz-adv-x="594" d=" M396,536 Q489,536 541.5,481.5 Q594,427 594,331 L594,0 L479,0 L479,299 Q479,359 445,393.5 Q411,428 351,428 Q287,427 246.5,387 Q206,347 200,283 L200,0 L85,0 L85,532 L200,532 L200,430 Q254,536 396,536 M342,-49 Q367,-49 385,-66.5 Q403,-84 403,-113 Q403,-139 385,-165 L328,-251 L269,-251 L307,-165 Q280,-147 280,-113 Q280,-85 297.5,-67 Q315,-49 342,-49"/> 
            <glyph glyph-name="Ň" unicode="&#x147;" horiz-adv-x="699" d=" M228,920 L330,920 L393,827 L456,920 L558,920 L450,770 L336,770 M699,0 L583,0 L210,502 L210,0 L92,0 L92,700 L208,700 L583,197 L583,700 L699,700"/> 
            <glyph glyph-name="ň" unicode="&#x148;" horiz-adv-x="594" d=" M286,602 L178,752 L280,752 L343,659 L406,752 L508,752 L400,602 M396,536 Q489,536 541.5,481.5 Q594,427 594,331 L594,0 L479,0 L479,299 Q479,359 445,393.5 Q411,428 351,428 Q287,427 246.5,387 Q206,347 200,283 L200,0 L85,0 L85,532 L200,532 L200,430 Q254,536 396,536"/> 
            <glyph glyph-name="Ō" unicode="&#x14C;" horiz-adv-x="776" d=" M528,809 L273,809 L273,892 L528,892 M248,703 Q562,703 669,601.5 Q776,500 776,350 Q776,200 669,97.5 Q562,-5 405,-5 Q248,-5 141,97.5 Q34,200 34,350 Q34,500 248,703 M406,597 Q302,597 228,525.5 Q154,454 154,350 Q154,246 228.5,173.5 Q303,101 406,101 Q509,101 582,173.5 Q655,246 655,350 Q655,454 582,525.5 Q509,597 406,597"/> 
            <glyph glyph-name="ō" unicode="&#x14D;" horiz-adv-x="590" d=" M440,641 L185,641 L185,724 L440,724 M313,536 Q436,536 513,461.5 Q590,387 590,266 Q590,146 513,71 Q436,-4 313,-4 Q189,-4 112,71 Q35,146 35,266 Q35,387 112,461.5 Q189,536 313,536 M313,437 Q241,437 195.5,389 Q150,341 150,265 Q150,188 195.5,140 Q241,92 313,92 Q385,92 430,140 Q475,188 475,265 Q475,341 429.5,389 Q384,437 313,437"/> 
            <glyph glyph-name="Ő" unicode="&#x150;" horiz-adv-x="776" d=" M435,884 L343,774 L254,774 L337,928 M600,884 L508,774 L419,774 L502,928 M248,703 Q562,703 669,601.5 Q776,500 776,350 Q776,200 669,97.5 Q562,-5 405,-5 Q248,-5 141,97.5 Q34,200 34,350 Q34,500 248,703 M406,597 Q302,597 228,525.5 Q154,454 154,350 Q154,246 228.5,173.5 Q303,101 406,101 Q509,101 582,173.5 Q655,246 655,350 Q655,454 582,525.5 Q509,597 406,597"/> 
            <glyph glyph-name="ő" unicode="&#x151;" horiz-adv-x="590" d=" M348,716 L256,606 L167,606 L250,760 M513,716 L421,606 L332,606 L415,760 M313,536 Q436,536 513,461.5 Q590,387 590,266 Q590,146 513,71 Q436,-4 313,-4 Q189,-4 112,71 Q35,146 35,266 Q35,387 112,461.5 Q189,536 313,536 M313,437 Q241,437 195.5,389 Q150,341 150,265 Q150,188 195.5,140 Q241,92 313,92 Q385,92 430,140 Q475,188 475,265 Q475,341 429.5,389 Q384,437 313,437"/> 
            <glyph glyph-name="Œ" unicode="&#x152;" horiz-adv-x="1045" d=" M1045,106 L1045,0 L404,0 Q248,0 141,101 Q34,202 34,350 Q34,497 141,598.5 Q248,700 404,700 L1033,700 L1033,594 L651,594 L651,404 L993,404 L993,299 L651,299 L651,106 M533,106 L533,593 L405,593 Q299,593 226.5,523 Q154,453 154,349 Q154,245 226.5,175.5 Q299,106 405,106"/> 
            <glyph glyph-name="œ" unicode="&#x153;" horiz-adv-x="1011" d=" M742,536 Q866,536 938.5,455 Q1011,374 1007,241 L584,241 Q593,171 639,130 Q685,89 754,89 Q843,89 905,151 L966,86 Q882,-4 744,-4 Q595,-4 530,114 Q463,-4 313,-4 Q189,-4 112,71 Q35,146 35,266 Q35,387 112,461.5 Q189,536 313,536 Q387,536 443,505 Q499,474 530,418 Q598,536 742,536 M584,303 L892,303 Q890,369 849,410 Q808,451 743,451 Q679,451 636,410.5 Q593,370 584,303 M241,92 Q385,92 430,140 Q475,188 475,265 Q475,341 429.5,389 Q384,437 313,437 Q241,437 195.5,389 Q150,341 150,265 Q150,188 241,92"/> 
            <glyph glyph-name="Ŕ" unicode="&#x154;" horiz-adv-x="670" d=" M390,776 L288,776 L394,924 L512,874 M536,0 L408,212 Q398,211 376,211 L210,211 L210,0 L92,0 L92,700 L376,700 Q510,700 584,637.5 Q658,575 658,461 Q658,377 620.5,319 Q583,261 513,234 L670,0 M210,317 L376,317 Q546,317 546,458 Q546,594 376,594 L210,594"/> 
            <glyph glyph-name="ŕ" unicode="&#x155;" horiz-adv-x="384" d=" M238,608 L136,608 L242,756 L360,706 M200,532 L200,426 Q255,536 384,536 L384,426 Q305,430 256,389 Q207,348 200,278 L200,0 L85,0 L85,532"/> 
            <glyph glyph-name="Ŗ" unicode="&#x156;" horiz-adv-x="670" d=" M670,0 L536,0 L408,212 Q398,211 376,211 L210,211 L210,0 L92,0 L92,700 L376,700 Q510,700 584,637.5 Q658,575 658,461 Q658,377 620.5,319 Q583,261 513,234 M210,317 L376,317 Q546,317 546,458 Q546,594 376,594 L210,594 M366,-49 Q391,-49 409,-66.5 Q427,-84 427,-113 Q427,-139 409,-165 L352,-251 L293,-251 L331,-165 Q304,-147 304,-113 Q304,-85 321.5,-67 Q339,-49 366,-49"/> 
            <glyph glyph-name="ŗ" unicode="&#x157;" horiz-adv-x="384" d=" M200,532 L200,426 Q255,536 384,536 L384,426 Q305,430 256,389 Q207,348 200,278 L200,0 L85,0 L85,532 M146,-49 Q171,-49 189,-66.5 Q207,-84 207,-113 Q207,-139 189,-165 L132,-251 L73,-251 L111,-165 Q84,-147 84,-113 Q84,-85 101.5,-67 Q119,-49 146,-49"/> 
            <glyph glyph-name="Ř" unicode="&#x158;" horiz-adv-x="670" d=" M295,770 L187,920 L289,920 L352,827 L415,920 L517,920 L409,770 M536,0 L408,212 Q398,211 376,211 L210,211 L210,0 L92,0 L92,700 L376,700 Q510,700 584,637.5 Q658,575 658,461 Q658,377 620.5,319 Q583,261 513,234 L670,0 M210,317 L376,317 Q546,317 546,458 Q546,594 376,594 L210,594"/> 
            <glyph glyph-name="ř" unicode="&#x159;" horiz-adv-x="384" d=" M143,602 L35,752 L137,752 L200,659 L263,752 L365,752 L257,602 M200,532 L200,426 Q255,536 384,536 L384,426 Q305,430 256,389 Q207,348 200,278 L200,0 L85,0 L85,532"/> 
            <glyph glyph-name="Ś" unicode="&#x15A;" horiz-adv-x="576" d=" M476,874 L354,776 L252,776 L358,924 M322,705 Q458,705 567,633 L518,529 Q411,594 313,594 Q260,594 229.5,575 Q199,556 199,521 Q199,486 227,461.5 Q255,437 297,425.5 Q339,414 388,396.5 Q437,379 479,359.5 Q521,340 548.5,298.5 Q576,257 576,198 Q576,106 502.5,51 Q429,-4 312,-4 Q232,-4 157,26 Q82,56 26,107 L77,209 Q130,160 193.5,133.5 Q257,107 314,107 Q376,107 410.5,129.5 Q445,152 445,192 Q445,228 417,252.5 Q389,277 347,288.5 Q305,300 256,316.5 Q207,333 165,351.5 Q123,370 95,411 Q67,452 67,510 Q67,599 137,652 Q207,705 322,705"/> 
            <glyph glyph-name="ś" unicode="&#x15B;" horiz-adv-x="439" d=" M398,706 L276,608 L174,608 L280,756 M244,537 Q354,537 430,483 L388,398 Q312,445 235,445 Q157,445 157,392 Q157,366 186,349 Q215,332 256.5,320.5 Q298,309 339.5,293.5 Q381,278 410,243 Q439,208 439,154 Q439,77 380.5,36.5 Q322,-4 235,-4 Q175,-4 117.5,15.5 Q60,35 21,70 L62,152 Q96,122 145.5,104 Q195,86 240,86 Q279,86 303,100 Q327,114 327,143 Q327,173 298,191 Q269,209 228,220 Q187,231 146,246 Q105,261 76.5,295.5 Q48,330 48,383 Q48,459 104.5,498 Q161,537 244,537"/> 
            <glyph glyph-name="Ş" unicode="&#x15E;" horiz-adv-x="576" d=" M199,556 Q199,486 227,461.5 Q255,437 297,425.5 Q339,414 388,396.5 Q437,379 479,359.5 Q521,340 548.5,298.5 Q576,257 576,198 Q576,117 519,64.5 Q462,12 366,-1 L343,-50 Q375,-56 394,-76.5 Q413,-97 413,-129 Q413,-172 382.5,-198 Q352,-224 307,-224 Q257,-224 219,-196 L241,-142 Q267,-162 299,-162 Q320,-162 332.5,-149.5 Q345,-137 345,-121 Q345,-105 332.5,-94 Q320,-83 297,-83 Q280,-83 262,-88 L298,-4 Q141,2 26,107 L77,209 Q130,160 193.5,133.5 Q257,107 314,107 Q376,107 410.5,129.5 Q445,152 445,192 Q445,228 417,252.5 Q389,277 347,288.5 Q305,300 256,316.5 Q207,333 165,351.5 Q123,370 95,411 Q67,452 67,510 Q67,599 137,652 Q207,705 322,705 Q458,705 567,633 L518,529 Q411,594 313,594 Q260,594 199,556"/> 
            <glyph glyph-name="ş" unicode="&#x15F;" horiz-adv-x="439" d=" M157,392 Q157,366 186,349 Q215,332 256.5,320.5 Q298,309 339.5,293.5 Q381,278 410,243 Q439,208 439,154 Q439,88 396,49 Q353,10 285,0 L261,-50 Q293,-56 312,-76.5 Q331,-97 331,-129 Q331,-172 300.5,-198 Q270,-224 225,-224 Q175,-224 137,-196 L159,-142 Q185,-162 217,-162 Q238,-162 250.5,-149.5 Q263,-137 263,-121 Q263,-105 250.5,-94 Q238,-83 215,-83 Q198,-83 180,-88 L216,-3 Q97,2 21,70 L62,152 Q96,122 145.5,104 Q195,86 240,86 Q279,86 303,100 Q327,114 327,143 Q327,173 298,191 Q269,209 228,220 Q187,231 146,246 Q105,261 76.5,295.5 Q48,330 48,383 Q48,459 104.5,498 Q161,537 244,537 Q354,537 430,483 L388,398 Q312,445 235,445 Q157,445 157,392"/> 
            <glyph glyph-name="Š" unicode="&#x160;" horiz-adv-x="576" d=" M151,920 L253,920 L316,827 L379,920 L481,920 L373,770 L259,770 M322,705 Q458,705 567,633 L518,529 Q411,594 313,594 Q260,594 229.5,575 Q199,556 199,521 Q199,486 227,461.5 Q255,437 297,425.5 Q339,414 388,396.5 Q437,379 479,359.5 Q521,340 548.5,298.5 Q576,257 576,198 Q576,106 502.5,51 Q429,-4 312,-4 Q232,-4 157,26 Q82,56 26,107 L77,209 Q130,160 193.5,133.5 Q257,107 314,107 Q376,107 410.5,129.5 Q445,152 445,192 Q445,228 417,252.5 Q389,277 347,288.5 Q305,300 256,316.5 Q207,333 165,351.5 Q123,370 95,411 Q67,452 67,510 Q67,599 137,652 Q207,705 322,705"/> 
            <glyph glyph-name="š" unicode="&#x161;" horiz-adv-x="439" d=" M73,752 L175,752 L238,659 L301,752 L403,752 L295,602 L181,602 M244,537 Q354,537 430,483 L388,398 Q312,445 235,445 Q157,445 157,392 Q157,366 186,349 Q215,332 256.5,320.5 Q298,309 339.5,293.5 Q381,278 410,243 Q439,208 439,154 Q439,77 380.5,36.5 Q322,-4 235,-4 Q175,-4 117.5,15.5 Q60,35 21,70 L62,152 Q96,122 145.5,104 Q195,86 240,86 Q279,86 303,100 Q327,114 327,143 Q327,173 298,191 Q269,209 228,220 Q187,231 146,246 Q105,261 76.5,295.5 Q48,330 48,383 Q48,459 104.5,498 Q161,537 244,537"/> 
            <glyph glyph-name="Ţ" unicode="&#x162;" horiz-adv-x="570" d=" M327,0 L303,-50 Q335,-56 354,-76.5 Q373,-97 373,-129 Q373,-172 342.5,-198 Q312,-224 267,-224 Q217,-224 179,-196 L201,-142 Q227,-162 259,-162 Q280,-162 292.5,-149.5 Q305,-137 305,-121 Q305,-105 292.5,-94 Q280,-83 257,-83 Q240,-83 222,-88 L259,0 L230,0 L230,594 L9,594 L9,700 L570,700 L570,594 L348,594 L348,0"/> 
            <glyph glyph-name="ţ" unicode="&#x163;" horiz-adv-x="386" d=" M295,-1 L272,-50 Q304,-56 323,-76.5 Q342,-97 342,-129 Q342,-172 311.5,-198 Q281,-224 236,-224 Q186,-224 148,-196 L170,-142 Q196,-162 228,-162 Q249,-162 261.5,-149.5 Q274,-137 274,-121 Q274,-105 261.5,-94 Q249,-83 226,-83 Q209,-83 191,-88 L227,-3 Q173,5 139.5,43.5 Q106,82 106,150 L106,426 L31,426 L31,512 L106,512 L106,658 L220,658 L220,512 L377,512 L377,426 L220,426 L220,171 Q220,131 234,115 Q248,99 277,99 Q309,99 357,122 L386,34 Q342,7 295,-1"/> 
            <glyph glyph-name="Ť" unicode="&#x164;" horiz-adv-x="570" d=" M129,920 L231,920 L294,827 L357,920 L459,920 L351,770 L237,770 M570,594 L348,594 L348,0 L230,0 L230,594 L9,594 L9,700 L570,700"/> 
            <glyph glyph-name="ť" unicode="&#x165;" horiz-adv-x="411" d=" M350,789 Q375,789 393,771.5 Q411,754 411,725 Q411,698 393,672 L336,586 L277,586 L315,673 Q288,691 288,725 Q288,753 305.5,771 Q323,789 350,789 M277,99 Q309,99 357,122 L386,34 Q320,-5 255,-5 Q190,-5 148,34 Q106,73 106,150 L106,426 L31,426 L31,512 L106,512 L106,658 L220,658 L220,512 L377,512 L377,426 L220,426 L220,171 Q220,131 234,115 Q248,99 277,99"/> 
            <glyph glyph-name="Ū" unicode="&#x16A;" horiz-adv-x="687" d=" M510,809 L255,809 L255,892 L510,892 M687,700 L687,290 Q687,153 606,74 Q525,-5 383,-5 Q241,-5 159.5,74 Q78,153 78,290 L78,700 L196,700 L196,290 Q196,202 246.5,151.5 Q297,101 384,101 Q470,101 519.5,151 Q569,201 569,290 L569,700"/> 
            <glyph glyph-name="ū" unicode="&#x16B;" horiz-adv-x="568" d=" M451,641 L196,641 L196,724 L451,724 M568,532 L568,0 L453,0 L453,104 Q401,-2 263,-4 Q172,-4 120,51 Q68,106 68,201 L68,532 L183,532 L183,233 Q183,173 216,138.5 Q249,104 307,104 Q374,105 413.5,151.5 Q453,198 453,270 L453,532"/> 
            <glyph glyph-name="Ů" unicode="&#x16E;" horiz-adv-x="687" d=" M333,969 Q431,969 465.5,934.5 Q500,900 500,853 Q500,805 465.5,771 Q431,737 382,737 Q333,737 298.5,771 Q264,805 264,853 Q264,900 333,969 M410,917 Q354,917 334,898 Q314,879 314,853 Q314,827 334,808 Q354,789 382,789 Q410,789 430,808 Q450,827 450,853 Q450,879 410,917 M687,700 L687,290 Q687,153 606,74 Q525,-5 383,-5 Q241,-5 159.5,74 Q78,153 78,290 L78,700 L196,700 L196,290 Q196,202 246.5,151.5 Q297,101 384,101 Q470,101 519.5,151 Q569,201 569,290 L569,700"/> 
            <glyph glyph-name="ů" unicode="&#x16F;" horiz-adv-x="568" d=" M372,569 Q274,569 239.5,603 Q205,637 205,685 Q205,732 239.5,766.5 Q274,801 323,801 Q372,801 406.5,766.5 Q441,732 441,685 Q441,637 372,569 M351,749 Q295,749 275,730 Q255,711 255,685 Q255,659 275,640 Q295,621 323,621 Q351,621 371,640 Q391,659 391,685 Q391,711 351,749 M568,532 L568,0 L453,0 L453,104 Q401,-2 263,-4 Q172,-4 120,51 Q68,106 68,201 L68,532 L183,532 L183,233 Q183,173 216,138.5 Q249,104 307,104 Q374,105 413.5,151.5 Q453,198 453,270 L453,532"/> 
            <glyph glyph-name="Ű" unicode="&#x170;" horiz-adv-x="687" d=" M417,884 L325,774 L236,774 L319,928 M582,884 L490,774 L401,774 L484,928 M687,700 L687,290 Q687,153 606,74 Q525,-5 383,-5 Q241,-5 159.5,74 Q78,153 78,290 L78,700 L196,700 L196,290 Q196,202 246.5,151.5 Q297,101 384,101 Q470,101 519.5,151 Q569,201 569,290 L569,700"/> 
            <glyph glyph-name="ű" unicode="&#x171;" horiz-adv-x="568" d=" M266,606 L177,606 L260,760 L358,716 M342,606 L425,760 L523,716 L431,606 M568,532 L568,0 L453,0 L453,104 Q401,-2 263,-4 Q172,-4 120,51 Q68,106 68,201 L68,532 L183,532 L183,233 Q183,173 216,138.5 Q249,104 307,104 Q374,105 413.5,151.5 Q453,198 453,270 L453,532"/> 
            <glyph glyph-name="Ų" unicode="&#x172;" horiz-adv-x="687" d=" M687,700 L687,290 Q687,180 633.5,106.5 Q580,33 484,7 Q431,-70 431,-105 Q431,-120 439,-128.5 Q447,-137 460,-137 Q485,-137 510,-105 L543,-144 Q507,-201 448,-201 Q416,-201 392.5,-181.5 Q369,-162 369,-123 Q369,-74 417,-4 Q406,-5 383,-5 Q241,-5 159.5,74 Q78,153 78,290 L78,700 L195,700 L195,290 Q195,202 246,151.5 Q297,101 384,101 Q470,101 519.5,151 Q569,201 569,290 L569,700"/> 
            <glyph glyph-name="ų" unicode="&#x173;" horiz-adv-x="604" d=" M567,0 L542,0 Q492,-67 492,-105 Q492,-137 522,-137 Q546,-137 571,-105 L604,-144 Q568,-201 509,-201 Q477,-201 453.5,-181 Q430,-161 430,-123 Q430,-74 482,0 L453,0 L453,99 Q399,-2 263,-4 Q172,-4 120.5,50.5 Q69,105 69,201 L69,532 L183,532 L183,233 Q183,173 216.5,138.5 Q250,104 308,104 Q370,105 408.5,145.5 Q447,186 453,249 L453,532 L567,532"/> 
            <glyph glyph-name="Ŵ" unicode="&#x174;" horiz-adv-x="1046" d=" M679,779 L585,779 L523,867 L461,779 L367,779 L470,920 L576,920 M812,0 L691,0 L525,546 L357,0 L235,0 L3,700 L130,700 L300,131 L469,699 L585,700 L755,131 L924,700 L1046,700"/> 
            <glyph glyph-name="ŵ" unicode="&#x175;" horiz-adv-x="898" d=" M603,611 L509,611 L447,699 L385,611 L291,611 L394,752 L500,752 M704,0 L585,0 L450,394 L315,0 L197,0 L1,532 L119,532 L257,114 L391,532 L510,532 L645,114 L781,532 L898,532"/> 
            <glyph glyph-name="Ŷ" unicode="&#x176;" horiz-adv-x="636" d=" M256,779 L162,779 L265,920 L371,920 L474,779 L380,779 L318,867 M379,233 L379,0 L262,0 L262,229 L1,700 L120,700 L320,359 L516,700 L636,700"/> 
            <glyph glyph-name="ŷ" unicode="&#x177;" horiz-adv-x="536" d=" M423,611 L329,611 L267,699 L205,611 L111,611 L214,752 L320,752 M536,532 L294,-73 Q244,-199 121,-199 Q52,-199 -2,-154 L47,-65 Q83,-91 116,-91 Q170,-91 197,-32 L215,8 L-5,532 L114,532 L273,129 L421,532"/> 
            <glyph glyph-name="Ÿ" unicode="&#x178;" horiz-adv-x="636" d=" M256,794 Q204,794 186.5,812 Q169,830 169,857 Q169,885 186.5,903 Q204,921 230,921 Q256,921 273,903 Q290,885 290,857 Q290,830 256,794 M433,794 Q381,794 363.5,812 Q346,830 346,857 Q346,885 363.5,903 Q381,921 407,921 Q433,921 450,903 Q467,885 467,857 Q467,830 433,794 M379,233 L379,0 L262,0 L262,229 L1,700 L120,700 L320,359 L516,700 L636,700"/> 
            <glyph glyph-name="Ź" unicode="&#x179;" horiz-adv-x="628" d=" M499,874 L377,776 L275,776 L381,924 M623,615 L197,106 L628,106 L628,0 L37,0 L37,85 L464,594 L50,594 L50,700 L623,700"/> 
            <glyph glyph-name="ź" unicode="&#x17A;" horiz-adv-x="500" d=" M425,706 L303,608 L201,608 L307,756 M491,454 L187,94 L500,93 L500,-1 L45,0 L45,78 L349,438 L54,438 L54,532 L491,531"/> 
            <glyph glyph-name="Ż" unicode="&#x17B;" horiz-adv-x="628" d=" M313,922 Q371,922 390,902.5 Q409,883 409,852 Q409,822 390,802.5 Q371,783 342,783 Q313,783 294,802.5 Q275,822 275,852 Q275,883 313,922 M623,615 L197,106 L628,106 L628,0 L37,0 L37,85 L464,594 L50,594 L50,700 L623,700"/> 
            <glyph glyph-name="ż" unicode="&#x17C;" horiz-adv-x="500" d=" M239,754 Q297,754 316,734.5 Q335,715 335,684 Q335,654 316,634.5 Q297,615 268,615 Q239,615 220,634.5 Q201,654 201,684 Q201,715 239,754 M491,454 L187,94 L500,93 L500,-1 L45,0 L45,78 L349,438 L54,438 L54,532 L491,531"/> 
            <glyph glyph-name="Ž" unicode="&#x17D;" horiz-adv-x="628" d=" M174,920 L276,920 L339,827 L402,920 L504,920 L396,770 L282,770 M623,615 L197,106 L628,106 L628,0 L37,0 L37,85 L464,594 L50,594 L50,700 L623,700"/> 
            <glyph glyph-name="ž" unicode="&#x17E;" horiz-adv-x="500" d=" M100,752 L202,752 L265,659 L328,752 L430,752 L322,602 L208,602 M491,454 L187,94 L500,93 L500,-1 L45,0 L45,78 L349,438 L54,438 L54,532 L491,531"/> 
            <glyph glyph-name="ƒ" unicode="&#x192;" horiz-adv-x="446" d=" M334,655 Q297,656 271.5,632 Q246,608 241,567 L228,464 L368,464 L359,384 L219,384 L168,-30 Q158,-109 111.5,-154.5 Q65,-200 -10,-199 Q-74,-197 -119,-161 L-87,-76 Q-59,-101 -22,-103 Q12,-104 31.5,-80 Q51,-56 56,-13 L105,384 L36,384 L45,464 L114,464 L129,583 Q139,661 190,707 Q241,753 318,752 Q393,750 446,714 L405,629 Q372,655 334,655"/> 
            <glyph glyph-name="Ș" unicode="&#x218;" horiz-adv-x="576" d=" M199,556 Q199,486 227,461.5 Q255,437 297,425.5 Q339,414 388,396.5 Q437,379 479,359.5 Q521,340 548.5,298.5 Q576,257 576,198 Q576,106 502.5,51 Q429,-4 312,-4 Q232,-4 157,26 Q82,56 26,107 L77,209 Q130,160 193.5,133.5 Q257,107 314,107 Q376,107 410.5,129.5 Q445,152 445,192 Q445,228 417,252.5 Q389,277 347,288.5 Q305,300 256,316.5 Q207,333 165,351.5 Q123,370 95,411 Q67,452 67,510 Q67,599 137,652 Q207,705 322,705 Q458,705 567,633 L518,529 Q411,594 313,594 Q260,594 199,556 M322,-49 Q347,-49 365,-66.5 Q383,-84 383,-113 Q383,-139 365,-165 L308,-251 L249,-251 L287,-165 Q260,-147 260,-113 Q260,-85 277.5,-67 Q295,-49 322,-49"/> 
            <glyph glyph-name="ș" unicode="&#x219;" horiz-adv-x="439" d=" M157,392 Q157,366 186,349 Q215,332 256.5,320.5 Q298,309 339.5,293.5 Q381,278 410,243 Q439,208 439,154 Q439,77 380.5,36.5 Q322,-4 235,-4 Q175,-4 117.5,15.5 Q60,35 21,70 L62,152 Q96,122 145.5,104 Q195,86 240,86 Q279,86 303,100 Q327,114 327,143 Q327,173 298,191 Q269,209 228,220 Q187,231 146,246 Q105,261 76.5,295.5 Q48,330 48,383 Q48,459 104.5,498 Q161,537 244,537 Q354,537 430,483 L388,398 Q312,445 235,445 Q157,445 157,392 M240,-49 Q265,-49 283,-66.5 Q301,-84 301,-113 Q301,-139 283,-165 L226,-251 L167,-251 L205,-165 Q178,-147 178,-113 Q178,-85 195.5,-67 Q213,-49 240,-49"/> 
            <glyph glyph-name="Ț" unicode="&#x21A;" horiz-adv-x="570" d=" M570,700 L570,594 L348,594 L348,0 L230,0 L230,594 L9,594 L9,700 M282,-49 Q307,-49 325,-66.5 Q343,-84 343,-113 Q343,-139 325,-165 L268,-251 L209,-251 L247,-165 Q220,-147 220,-113 Q220,-85 237.5,-67 Q255,-49 282,-49"/> 
            <glyph glyph-name="ț" unicode="&#x21B;" horiz-adv-x="386" d=" M357,122 L386,34 Q320,-5 255,-5 Q190,-5 148,34 Q106,73 106,150 L106,426 L31,426 L31,512 L106,512 L106,658 L220,658 L220,512 L377,512 L377,426 L220,426 L220,171 Q220,131 234,115 Q248,99 277,99 Q309,99 357,122 M251,-49 Q276,-49 294,-66.5 Q312,-84 312,-113 Q312,-139 294,-165 L237,-251 L178,-251 L216,-165 Q189,-147 189,-113 Q189,-85 206.5,-67 Q224,-49 251,-49"/> 
            <glyph glyph-name="ȷ" unicode="&#x237;" horiz-adv-x="199" d=" M199,532 L199,-24 Q199,-108 156,-153.5 Q113,-199 36,-198 Q-37,-196 -91,-162 L-62,-78 Q-28,-100 12,-102 Q47,-103 65.5,-78.5 Q84,-54 84,-7 L84,532"/> 
            <glyph glyph-name="ˆ" unicode="&#x2C6;" horiz-adv-x="331" d=" M331,614 L237,614 L175,702 L113,614 L19,614 L122,755 L228,755"/> 
            <glyph glyph-name="ˇ" unicode="&#x2C7;" horiz-adv-x="340" d=" M10,755 L112,755 L175,662 L238,755 L340,755 L232,605 L118,605"/> 
            <glyph glyph-name="ˉ" unicode="&#x2C9;" horiz-adv-x="303" d=" M303,641 L48,641 L48,724 L303,724"/> 
            <glyph glyph-name="˘" unicode="&#x2D8;" horiz-adv-x="316" d=" M238,749 L316,749 Q314,686 274.5,646.5 Q235,607 175,607 Q115,607 75.5,646.5 Q36,686 34,749 L112,749 Q114,720 131.5,702 Q149,684 175,684 Q201,684 218.5,702 Q236,720 238,749"/> 
            <glyph glyph-name="˙" unicode="&#x2D9;" horiz-adv-x="242" d=" M146,754 Q204,754 223,734.5 Q242,715 242,684 Q242,654 223,634.5 Q204,615 175,615 Q146,615 127,634.5 Q108,654 108,684 Q108,715 146,754"/> 
            <glyph glyph-name="˚" unicode="&#x2DA;" horiz-adv-x="293" d=" M126,801 Q224,801 258.5,766.5 Q293,732 293,685 Q293,637 258.5,603 Q224,569 175,569 Q126,569 91.5,603 Q57,637 57,685 Q57,732 126,801 M203,749 Q147,749 127,730 Q107,711 107,685 Q107,659 127,640 Q147,621 175,621 Q203,621 223,640 Q243,659 243,685 Q243,711 203,749"/> 
            </font>
</defs>
</svg>
